<?xml version="1.0" encoding="UTF-8" standalone="no"?>
<!-- Created with Inkscape (http://www.inkscape.org/) -->

<svg
   version="1.1"
   id="svg1"
   width="268.79999"
   height="797.8667"
   viewBox="0 0 268.79999 797.8667"
   sodipodi:docname="key3.svg"
   inkscape:version="1.4 (e7c3feb100, 2024-10-09)"
   xmlns:inkscape="http://www.inkscape.org/namespaces/inkscape"
   xmlns:sodipodi="http://sodipodi.sourceforge.net/DTD/sodipodi-0.dtd"
   xmlns="http://www.w3.org/2000/svg"
   xmlns:svg="http://www.w3.org/2000/svg">
  <defs
     id="defs1" />
  <sodipodi:namedview
     id="namedview1"
     pagecolor="#ffffff"
     bordercolor="#000000"
     borderopacity="0.25"
     inkscape:showpageshadow="2"
     inkscape:pageopacity="0.0"
     inkscape:pagecheckerboard="0"
     inkscape:deskcolor="#d1d1d1"
     showgrid="false"
     inkscape:zoom="1.1292613"
     inkscape:cx="134.60126"
     inkscape:cy="398.93335"
     inkscape:window-width="1898"
     inkscape:window-height="1144"
     inkscape:window-x="0"
     inkscape:window-y="0"
     inkscape:window-maximized="1"
     inkscape:current-layer="g1" />
  <g
     inkscape:groupmode="layer"
     inkscape:label="Image"
     id="g1">
    <path
       style="fill:#000000"
       d="m 100.95338,783.39771 c -2.724356,-2.0802 -4.953386,-4.42143 -4.953386,-5.20272 0,-0.78129 -0.74274,-2.03696 -1.65054,-2.79036 -1.28853,-1.06939 -1.60924,-3.41101 -1.46224,-10.67624 0.10356,-5.11853 -0.17312,-9.89119 -0.61485,-10.60592 -0.62024,-1.00357 -1.80966,-28.47398 -1.87088,-43.20923 -0.0154,-3.69945 1.351,-29.69807 1.76586,-33.6 0.21832,-2.05334 0.48832,-7.81334 0.6,-12.8 0.11168,-4.98667 0.65893,-14.58667 1.21612,-21.33334 0.55718,-6.74666 1.22404,-16.58666 1.4819,-21.86666 0.25786,-5.28001 0.73451,-13.92001 1.05923,-19.20001 0.32472,-5.28 0.82122,-16.32 1.10334,-24.53333 0.28212,-8.21333 0.75925,-20.21333 1.06029,-26.66667 0.30104,-6.45333 0.75798,-20.61333 1.01542,-31.46667 0.25744,-10.85333 0.749386,-27.17333 1.093206,-36.26666 0.34382,-9.09334 0.82907,-26.61334 1.07834,-38.93334 0.24927,-12.32 0.73393,-29.6 1.07701,-38.4 0.34308,-8.8 0.78377,-21.04 0.97931,-27.2 0.19555,-6.16 0.43863,-11.2 0.54019,-11.2 0.10155,0 0.22528,-3.36 0.27496,-7.46667 0.0663,-5.4792 0.68199,-8.5087 2.31318,-11.38145 2.20911,-3.89056 2.21037,-3.94955 0.20368,-9.52996 -1.21691,-3.38411 -2.05448,-8.66001 -2.10802,-13.27848 -0.0587,-5.06709 -0.48347,-7.51332 -1.25368,-7.22058 -0.64066,0.2435 -1.61678,-1.13953 -2.16915,-3.0734 -0.70332,-2.46237 -2.530556,-4.5173 -6.096996,-6.85676 -2.80099,-1.83734 -6.4127,-5.19734 -8.02603,-7.46667 -3.54629,-4.98823 -7.04456,-18.08076 -6.04595,-22.62741 0.4661,-2.12217 0.15828,-4.07337 -0.8987,-5.69652 -0.8842,-1.35783 -1.85039,-3.82535 -2.14709,-5.48339 -0.2967,-1.65804 -1.07687,-4.64301 -1.73371,-6.63326 -0.77543,-2.34959 -0.83867,-4.25405 -0.18031,-5.43047 0.80878,-1.44522 0.33767,-2.17287 -2.3283,-3.5962 -10.3329,-5.51659 -13.55105,-7.64015 -22.61282,-14.92146 -5.47864,-4.4022 -11.68165,-10.27828 -13.78447,-13.05797 -2.10281,-2.77968 -5.06552,-6.37968 -6.58378,-8 -1.51827,-1.62031 -3.69462,-5.10508 -4.83633,-7.74392 -1.14172,-2.63885 -2.69539,-6.23885 -3.45261,-8.00001 -2.00513,-4.66356 -6.83323,-20.8068 -7.33804,-24.53543 -0.23828,-1.76 -1.61005,-7.28 -3.04837,-12.26667 -2.20069,-7.62977 -2.58613,-11.09522 -2.4321,-21.86666 0.10068,-7.04 0.79085,-15.20001 1.53373,-18.13334 1.77715,-7.01737 6.8027,-17.04226 11.31926,-22.57952 1.99464,-2.4454 3.62661,-4.948512 3.62661,-5.56247 0,-1.405497 3.75463,-3.48116 4.65975,-2.576039 0.37047,0.37047 0.67358,0.133007 0.67358,-0.527696 0,-4.195676 22.16798,-17.084135 32.53334,-18.914873 1.17333,-0.207235 3.81016,-0.88588 5.85962,-1.508099 2.04946,-0.622218 5.72679,-1.131307 8.17185,-1.131307 3.65467,0 4.93683,-0.583855 7.20704,-3.28184 1.51882,-1.805012 2.76148,-4.406113 2.76148,-5.780225 0,-2.279811 2.83371,-8.850412 4.37185,-10.137129 0.35118,-0.293777 0.95759,-3.31301 1.34758,-6.709406 0.38999,-3.396397 1.73298,-8.353551 2.98443,-11.015898 1.91131,-4.066126 3.210276,-5.254091 8.118486,-7.424735 3.21371,-1.421256 6.45203,-2.584102 7.19626,-2.584102 0.74424,0 1.60306,-0.651239 1.9085,-1.447198 1.09189,-2.845424 25.54602,-4.870598 33.80623,-2.79967 5.35956,1.343703 22.4,9.572861 22.4,10.817394 0,0.439544 1.08,1.951839 2.4,3.360656 3.97884,4.246563 6.13261,7.477157 6.14618,9.219102 0.007,0.907345 1.27183,3.809717 2.81058,6.449717 1.53876,2.64 3.58902,7.39781 4.55615,10.57291 0.96713,3.175101 2.46236,6.14014 3.32275,6.588976 0.86039,0.448837 5.85888,2.1523 11.10777,3.785473 5.29563,1.647719 11.70509,4.531574 14.4,6.479095 2.67111,1.930329 5.85913,3.947734 7.08448,4.483123 1.22535,0.535388 3.47436,2.454756 4.9978,4.265262 1.52344,1.810506 3.21319,3.291829 3.755,3.291829 1.2354,0 8.1019,7.980654 7.76389,9.023658 -0.13703,0.422834 1.46937,2.297682 3.56979,4.166332 2.10042,1.86864 3.81894,3.92061 3.81894,4.55993 0,0.63931 0.99484,2.42712 2.21075,3.9729 1.21591,1.54579 1.92989,2.81052 1.58662,2.81052 -0.34327,0 0.52673,1.82309 1.93335,4.05131 3.1402,4.9744 5.64893,16.66541 6.58759,30.69903 0.58492,8.74483 0.33368,12.06515 -1.44647,19.11633 -1.18488,4.69333 -2.49576,11.17333 -2.91307,14.4 -1.01429,7.84267 -4.21838,17.64318 -6.8703,21.01455 -1.18533,1.5069 -2.15514,3.20979 -2.15514,3.78421 0,2.61432 -10.09674,16.83991 -15.71022,22.13457 -9.93691,9.37254 -28.08847,21.36768 -38.68978,25.56746 -2.05333,0.81344 -4.68013,2.11353 -5.83734,2.8891 -1.1572,0.77556 -3.01168,1.41011 -4.12106,1.41011 -1.67064,0 -1.92823,0.59539 -1.49986,3.46667 0.28446,1.90666 0.10968,4.54965 -0.38839,5.8733 -0.49807,1.32365 -1.1506,5.7671 -1.45007,9.87434 -1.05508,14.47094 -10.56629,30.44976 -19.44023,32.65957 -3.29639,0.82087 -5.83507,3.51817 -4.83471,5.13678 0.85957,1.3908 0.72873,13.86624 -0.1605,15.30506 -0.90097,1.45779 -2.10677,13.93583 -1.61872,16.75095 0.56659,3.26811 0.17522,63.64328 -0.55661,85.86667 -1.1871,36.04816 -1.87177,70.64808 -1.88912,95.46667 -0.009,13.49334 -0.40356,26.35796 -0.87584,28.58805 -1.08034,5.10129 0.48996,11.02515 3.3247,12.54226 1.1874,0.63547 4.81603,1.15541 8.06363,1.15541 3.2476,0 9.15595,0.82565 13.12966,1.83479 7.50264,1.90532 22.31227,2.13008 45.28181,0.68723 10.50218,-0.6597 25.13932,0.96841 25.13932,2.79628 0,0.4743 0.66561,0.60694 1.47913,0.29477 0.86575,-0.33222 2.47978,0.83768 3.89213,2.82114 1.90145,2.67035 2.46658,5.06169 2.66573,11.28008 0.139,4.34023 -0.0797,8.0968 -0.48609,8.34793 -0.40635,0.25114 -0.6649,2.64559 -0.57456,5.32101 0.0903,2.67541 -0.12238,4.86432 -0.47271,4.86423 -0.35033,-9e-5 -0.60565,2.88707 -0.56737,6.41591 0.17554,16.18232 -1.68118,18.76225 -14.54899,20.21595 -11.48289,1.29725 -17.47585,3.29303 -17.72151,5.90163 -0.43991,4.67131 -1.29689,9.69253 -1.94051,11.36977 -0.78661,2.04987 -6.29799,4.61047 -7.85383,3.64891 -0.58154,-0.35941 -1.35884,-0.16565 -1.72733,0.43059 -0.3685,0.59624 -2.16166,1.08407 -3.98482,1.08407 -4.30919,0 -3.3672,0.89094 1.61663,1.52903 2.1461,0.27477 4.90016,1.03377 6.12013,1.68668 3.46725,1.85562 6.36224,7.51288 6.36665,12.44143 0.006,7.00203 2.47562,8.43742 13.49626,7.84515 1.84742,-0.0993 3.68781,0.35161 4.08977,1.00199 0.40195,0.65037 1.61519,0.90181 2.69609,0.55874 1.0809,-0.34306 3.62556,0.07 5.65481,0.91784 3.25441,1.35978 3.74862,2.08865 4.19055,6.18036 0.27555,2.55133 0.0465,9.19878 -0.50894,14.77211 -0.55548,5.57334 -0.9422,11.09334 -0.85939,12.26667 1.18361,16.77052 -1.32113,24.02867 -8.99312,26.05991 -9.54326,2.52667 -21.32611,3.14316 -36.82871,1.9269 -16.11634,-1.26441 -44.84158,-1.64325 -48.53333,-0.64007 -1.22269,0.33224 -2.28572,1.67678 -2.49032,3.14981 -0.19634,1.41357 -0.79634,3.02612 -1.33333,3.58345 -0.53699,0.55733 -0.97635,2.26133 -0.97635,3.78667 0,1.52533 -0.38408,3.22933 -0.8535,3.78666 -0.46943,0.55734 -1.94288,3.89334 -3.27434,7.41334 -2.70637,7.15489 -4.46381,10.92817 -7.82475,16.8 l -2.28954,4 H 118.36565 105.90677 Z M 236.7786,581.82079 c -0.74211,-0.89418 -1.56894,-1.40611 -1.83742,-1.13763 -0.73973,0.73973 0.76324,2.76341 2.05237,2.76341 0.7073,0 0.62638,-0.61204 -0.21495,-1.62578 z M 128.45534,314.59393 c -2.38481,-0.86587 -3.07999,-0.53862 -2.128,1.00174 0.37087,0.60008 1.46384,0.78808 2.42883,0.41778 1.54235,-0.59186 1.50598,-0.76351 -0.30083,-1.41952 z m 37.65576,-43.25849 c -0.35444,-0.35444 -1.27444,-0.39234 -2.04444,-0.0842 -0.85092,0.34051 -0.59816,0.59326 0.64444,0.64445 1.12445,0.0463 1.75445,-0.20579 1.4,-0.56024 z m -47.75359,-39.50013 c 8.63986,-5.10369 8.63986,-19.14049 0,-24.24418 -6.33605,-3.7428 -15.92108,-1.43905 -19.546266,4.69791 -3.69036,6.24727 -1.48266,15.76967 4.519746,19.49488 3.62387,2.24906 11.26194,2.27518 15.02652,0.0514 z m 52.67491,-13.06221 c 3.02581,-3.02581 3.36757,-4.01293 3.36757,-9.72655 0,-5.75968 -0.32864,-6.68762 -3.48718,-9.84615 -3.15853,-3.15854 -4.08647,-3.48718 -9.84615,-3.48718 -5.75968,0 -6.68762,0.32864 -9.84615,3.48718 -3.15043,3.15042 -3.48718,4.09494 -3.48718,9.78073 0,5.23688 0.44772,6.77529 2.66666,9.1628 3.6611,3.93923 6.07696,4.81248 12.0991,4.37339 4.0912,-0.2983 5.86627,-1.07716 8.53333,-3.74422 z M 74.624174,206.23531 c 8.63986,-5.10369 8.63986,-19.14049 0,-24.24418 -6.33605,-3.7428 -15.92107,-1.43905 -19.54627,4.69791 -3.69035,6.24727 -1.48265,15.76966 4.51975,19.49488 3.62388,2.24906 11.26194,2.27518 15.02652,0.0514 z m 65.323316,-6.91099 c 7.50041,-1.57756 15.66986,-5.49437 22.15997,-10.62451 4.81185,-3.80354 5.87444,-4.18659 11.6137,-4.18659 4.46262,0 6.48729,-0.44311 6.89643,-1.5093 0.43101,-1.1232 -0.75086,-1.69222 -4.62001,-2.22437 l -5.19917,-0.71507 3.02823,-4.97563 c 12.3018,-20.21285 8.99009,-46.69374 -7.95922,-63.64306 -19.71294,-19.712937 -50.58083,-20.570251 -71.815606,-1.99458 -3.03517,2.65509 -5.51849,4.31022 -5.51849,3.67805 0,-0.63216 -1.08,-1.15593 -2.4,-1.16394 -6.14909,-0.0373 -6.86289,-0.80232 -6.36384,-6.82027 0.81454,-9.822213 -4.21669,-15.565173 -13.63615,-15.565173 -8.66423,0 -13.86667,5.202441 -13.86667,13.866663 0,8.74689 5.20397,13.8704 14.08036,13.86269 2.66973,-0.002 6.0176,-0.8767 8.01136,-2.09235 2.88037,-1.75625 3.98299,-1.9021 6.93334,-0.9171 1.92955,0.64419 3.88773,1.50921 4.35152,1.92227 0.46379,0.41305 -0.81382,4.06754 -2.83913,8.12108 -7.99297,15.99746 -8.02155,31.74875 -0.0864,47.63675 2.57741,5.16058 3.17377,7.2 2.10543,7.2 -0.83301,0 -1.41967,0.94111 -1.32986,2.13334 0.11958,1.58739 0.92538,2.13333 3.14878,2.13333 1.93951,0 4.97634,1.61947 8.65402,4.61497 13.014566,10.60052 28.831616,14.59019 44.651406,11.2628 z m 70.28598,-6.86289 c 9.54089,-4.93379 9.54089,-19.49597 0,-24.42976 -6.54058,-3.38227 -14.46443,-1.18561 -18.27666,5.06667 -7.2281,11.85448 5.90022,25.7632 18.27666,19.36309 z M 52.224174,156.10197 c 8.63986,-5.10369 8.63986,-19.14049 0,-24.24418 -3.78796,-2.2376 -11.06039,-2.2376 -14.84835,0 -3.58416,2.11721 -6.44249,6.70081 -6.44249,10.33111 0,1.47393 -0.5102,2.84994 -1.13378,3.0578 -0.62358,0.20786 -1.27757,1.68786 -1.45332,3.28889 -0.266,2.42319 0.0938,2.91096 2.14744,2.91096 1.35684,0 2.85084,0.62897 3.31999,1.39771 2.97314,4.87172 12.74965,6.60166 18.41051,3.25771 z m 165.118896,-8.91633 c 1.91203,-1.16577 4.43024,-3.68398 5.59602,-5.59601 7.60223,-12.46865 -7.54686,-27.61774 -20.01552,-20.01551 -1.91202,1.16578 -4.43023,3.68398 -5.59601,5.59601 -7.60223,12.46866 7.54686,27.61775 20.01551,20.01551 z m -22.4,-37.33333 c 4.49159,-2.73856 7.71561,-8.08953 7.71561,-12.805766 0,-6.897501 -7.33689,-14.919118 -13.65497,-14.929347 -1.38357,-0.0022 -2.17157,-0.475458 -1.79807,-1.079797 1.76878,-2.861942 -9.92177,5.419628 -12.00565,8.504787 -6.1353,9.083253 1.32247,22.429723 12.53333,22.429723 2.05334,0 5.29773,-0.95382 7.20975,-2.1196 z M 43.733334,104.04283 c 0,-0.25871 -0.48,-0.76704 -1.06667,-1.12962 -0.58667,-0.36258 -1.06667,-0.15091 -1.06667,0.47038 0,0.62129 0.48,1.12962 1.06667,1.12962 0.58667,0 1.06667,-0.21167 1.06667,-0.47038 z M 234.66666,94.442829 c 0,-0.25871 -0.48,-0.767038 -1.06667,-1.129618 -0.58667,-0.36258 -1.06667,-0.150909 -1.06667,0.470381 0,0.62129 0.48,1.129619 1.06667,1.129619 0.58667,0 1.06667,-0.211672 1.06667,-0.470382 z M 140.54308,82.118972 c 1.91203,-1.165778 4.43023,-3.683984 5.59601,-5.596013 7.60223,-12.468655 -7.54686,-27.617744 -20.01551,-20.015512 -4.49159,2.738556 -7.71561,8.08953 -7.71561,12.805763 0,7.524995 7.40036,14.925359 14.92536,14.925359 2.05333,0 5.29772,-0.953819 7.20975,-2.119597 z m 29.56245,-14.016756 c -0.59761,-3.103159 -1.5722,-3.895311 -1.5722,-1.277895 0,1.864379 0.81645,3.555555 1.71653,3.555555 0.16187,0 0.0969,-1.024947 -0.14433,-2.27766 z m 9.09446,0.740612 c 0,-0.25871 -0.48,-0.767038 -1.06666,-1.129618 -0.58667,-0.36258 -1.06667,-0.150909 -1.06667,0.470381 0,0.62129 0.48,1.129619 1.06667,1.129619 0.58666,0 1.06666,-0.211672 1.06666,-0.470382 z M 163.73333,31.979875 c 0.36258,-0.586667 0.17923,-1.066667 -0.40743,-1.066667 -0.58667,0 -1.36333,0.48 -1.72591,1.066667 -0.36258,0.586666 -0.17923,1.066666 0.40743,1.066666 0.58667,0 1.36333,-0.48 1.72591,-1.066666 z"
       id="path1" />
  </g>
</svg>
