<?xml version="1.0" encoding="UTF-8" standalone="no"?>
<!-- Created with Inkscape (http://www.inkscape.org/) -->

<svg
   version="1.1"
   id="svg1"
   width="906.16217"
   height="129.72974"
   viewBox="0 0 906.16217 129.72974"
   sodipodi:docname="logo_full.svg"
   inkscape:version="1.4 (e7c3feb100, 2024-10-09)"
   xmlns:inkscape="http://www.inkscape.org/namespaces/inkscape"
   xmlns:sodipodi="http://sodipodi.sourceforge.net/DTD/sodipodi-0.dtd"
   xmlns="http://www.w3.org/2000/svg"
   xmlns:svg="http://www.w3.org/2000/svg">
  <defs
     id="defs1" />
  <sodipodi:namedview
     id="namedview1"
     pagecolor="#ffffff"
     bordercolor="#000000"
     borderopacity="0.25"
     inkscape:showpageshadow="2"
     inkscape:pageopacity="0.0"
     inkscape:pagecheckerboard="0"
     inkscape:deskcolor="#d1d1d1"
     showgrid="false"
     inkscape:zoom="0.94810263"
     inkscape:cx="453.01003"
     inkscape:cy="64.866395"
     inkscape:window-width="1898"
     inkscape:window-height="1144"
     inkscape:window-x="0"
     inkscape:window-y="0"
     inkscape:window-maximized="1"
     inkscape:current-layer="g1" />
  <g
     inkscape:groupmode="layer"
     inkscape:label="Image"
     id="g1">
    <path
       style="fill:#000000"
       d="m 43.542593,129.30015 c -0.445946,-0.17994 -0.815281,-0.81366 -0.820744,-1.40825 -0.0078,-0.85409 -0.127037,-0.89627 -0.567667,-0.20086 -0.348561,0.5501 -1.071704,0.7171 -1.928167,0.44527 -1.36194,-0.43227 -1.362932,-0.44978 -0.160141,-2.82617 1.208514,-2.3877 2.3781,-6.60743 1.831386,-6.60743 -0.158922,0 -0.927524,1.75135 -1.708005,3.89189 -0.78048,2.14054 -1.6807,3.89189 -2.000488,3.89189 -0.319789,0 -0.668974,-1.67838 -0.775966,-3.72973 -0.172157,-3.30072 0.130361,-4.3872 2.630039,-9.4457 4.256689,-8.61409 2.818969,-7.43351 -1.777767,1.45981 -2.874666,5.56162 -4.277332,7.66344 -4.943635,7.40776 -0.863675,-0.33143 -6.157224,-8.11503 -6.157224,-9.05355 0,-0.23113 1.307228,-2.57342 2.904951,-5.20509 1.597723,-2.63167 2.654992,-4.78485 2.349486,-4.78485 -0.305506,0 -1.603359,0.43784 -2.884117,0.97297 -1.280759,0.53514 -2.46705,0.97298 -2.636203,0.97298 -0.169152,0 0.401741,-1.24054 1.268651,-2.75676 1.266309,-2.21476 1.577737,-3.6784 1.584014,-7.44451 0.0071,-4.2664 -0.13538,-4.78157 -1.585284,-5.73158 -0.876203,-0.57411 -1.890716,-0.8599 -2.254472,-0.63509 -0.363757,0.22482 -1.707379,2.27918 -2.985827,4.56526 l -2.32445,4.15651 1.560714,3.86394 1.560714,3.86393 -1.520341,-0.69271 c -2.819917,-1.28484 -3.637799,-7.83711 -1.732669,-13.88087 1.16412,-3.69302 0.805787,-5.14355 -0.765467,-3.09861 -2.311084,3.00781 -4.445793,8.40597 -4.81328,12.17161 l -0.39009,3.99725 -1.208358,-1.79314 c -1.965801,-2.91715 -2.119587,-7.18036 -0.392062,-10.8687 l 1.482481,-3.16516 -1.988956,-2.26529 C 9.5327309,82.10876 6.0043918,75.53167 4.6992031,71.02413 3.7211737,67.64646 3.540192,63.19074 3.3227048,37.13514 L 3.0722936,7.1351405 h 6.8348954 6.834895 l -1.339492,2.27027 C 14.161441,11.509 13.829693,11.67568 10.883927,11.67568 H 7.704755 l 0.02263,24.81081 c 0.026112,28.62874 0.4348064,32.40852 4.324415,39.99402 2.414195,4.70815 2.531204,4.8218 5.815607,5.64867 1.843513,0.46412 5.084839,1.54803 7.202947,2.40869 3.44336,1.39916 4.067126,1.47401 5.891401,0.70696 2.047444,-0.86088 2.579034,-1.80828 1.417453,-2.52618 -0.342564,-0.21171 -1.729051,-2.43377 -3.081081,-4.93791 -2.275376,-4.2143 -2.590927,-4.52748 -4.242021,-4.2101 -1.714081,0.32948 -1.783784,0.23787 -1.783784,-2.34443 0,-1.96412 -1.252179,-5.39991 -4.652969,-12.76706 -4.635291,-10.04145 -4.654083,-10.1048 -4.946326,-16.67579 -0.161346,-3.62782 0.05157,-9.47805 0.473147,-13.00051 0.421577,-3.52246 1.044122,-8.80346 1.383435,-11.73557 0.977348,-8.4455595 1.78197,-9.3856995 8.715686,-10.1836195 2.522567,-0.29029 3.695203,-0.0975 5.277186,0.86746 l 2.033942,1.24069 0.405099,-2.53335 c 0.400493,-2.50455 0.419362,-2.51909 1.659608,-1.27884 1.615046,1.61504 5.504901,2.34892 7.538669,1.42227 2.232112,-1.01701 1.99017,-2.08651 -0.278311,-1.23025 -1.035639,0.39091 -2.392189,0.46942 -3.081081,0.17831 -1.006274,-0.42522 -0.757497,-0.6271 1.363807,-1.10669 1.427027,-0.32262 3.324325,-0.68104 4.216217,-0.79649 0.891891,-0.11544 2.935135,-0.57473 4.54054,-1.02063 3.92584,-1.09041 11.746554,-0.40697 15.360051,1.3423 3.439141,1.66486 7.444569,6.1220395 9.604485,10.6877195 3.018016,6.37957 1.715977,8.85112 -4.654853,8.83594 -5.077943,-0.0121 -6.762538,-0.77699 -11.723977,-5.32325 -3.061397,-2.80521 -4.734755,-3.87858 -6.04664,-3.87858 -0.99762,0 -2.013581,0.32316 -2.25769,0.71814 -0.292873,0.47388 -0.01274,0.58132 0.82359,0.31588 1.091971,-0.34658 1.22963,-0.14474 0.994396,1.458 -0.212405,1.44722 0.128202,2.17588 1.53397,3.28166 0.99385,0.78176 2.407249,1.34692 3.140888,1.25591 0.733639,-0.091 2.573013,0.73843 4.087499,1.8432 3.293722,2.40268 5.997544,3.00711 10.058195,2.2485 2.515639,-0.46997 3.051928,-0.39519 3.214353,0.44822 0.129697,0.67346 0.937388,1.02349 2.412994,1.04572 1.875432,0.0283 2.294588,0.31784 2.713597,1.87473 0.957855,3.55906 -1.059165,13.67568 -5.38787,27.02356 -2.624261,8.0921 -3.851884,10.4605 -8.22275,15.86381 -2.007631,2.48186 -3.985191,4.95421 -4.394578,5.49412 -0.409387,0.53991 -0.05255,-1.081 0.792976,-3.60203 1.514474,-4.51558 3.287183,-16.21906 2.707996,-17.87828 -0.163306,-0.46783 -0.510956,1.0467 -0.772556,3.36562 -0.856265,7.59025 -2.795864,15.19484 -5.16762,20.2607 -1.433134,3.06105 -2.329969,5.95656 -2.329969,7.52251 0,2.20551 0.254894,2.65147 1.906505,3.33559 1.676935,0.69461 2.533589,0.54787 7.11421,-1.2186 2.864238,-1.10457 5.771616,-2.00831 6.46084,-2.00831 1.791867,0 7.341357,-6.33982 9.452556,-10.79874 3.310504,-6.99189 3.582921,-9.92132 3.595167,-38.66072 l 0.01126,-26.43243 -5.027028,-0.008 -5.027027,-0.008 -1.532491,-2.3645595 -1.532491,-2.36455 6.010518,0.42664 c 3.305785,0.23465 7.425136,0.42663 9.154113,0.42663 h 3.143595 V 32.93594 c 0,14.19044 -0.301795,28.27422 -0.670655,31.2973 -1.228461,10.0681 -4.324216,17.10158 -10.28377,23.36446 l -3.878066,4.07545 1.64897,3.25408 c 1.950663,3.84945 1.888006,8.62771 -0.154124,11.75347 l -1.25695,1.92394 -0.36566,-4.22544 c -0.368215,-4.25496 -2.828317,-10.00619 -4.174881,-9.76006 -0.387955,0.0709 -0.557226,2.04846 -0.421174,4.92046 0.247381,5.22211 -0.667334,9.09001 -2.297634,9.71561 -1.582156,0.60713 -1.594361,0.21141 -0.102397,-3.31997 l 1.380771,-3.26819 -1.464617,-2.93261 c -0.805539,-1.61293 -2.121009,-3.7558 -2.923267,-4.76193 -1.446992,-1.8147 -1.472828,-1.82003 -3.232556,-0.66702 -1.716615,1.12477 -1.766535,1.32278 -1.545704,6.13112 0.177694,3.86909 0.551212,5.42164 1.687659,7.01488 1.864911,2.6145 1.835025,2.92947 -0.204389,2.15408 -0.915116,-0.34792 -1.760191,-0.63259 -1.877944,-0.63259 -0.117753,0 -0.230328,2.26216 -0.250168,5.02703 -0.03645,5.07902 -1.037649,9.04743 -3.062135,12.13719 -1.04035,1.58777 -1.176769,1.62405 -2.296471,0.61073 -1.119879,-1.01347 -1.327385,-0.95705 -3.501955,0.95225 -2.199334,1.93104 -3.535921,2.33095 -5.347478,1.59997 z m 6.31975,-9.124 c -0.631889,-0.99016 -0.68352,-0.9248 -0.373236,0.4725 0.198053,0.8919 0.410795,2.35136 0.472761,3.24325 0.08765,1.2615 0.170531,1.15657 0.373236,-0.47251 0.143314,-1.15177 -0.06943,-2.61123 -0.472761,-3.24324 z m 5.894966,-15.64551 c -0.385662,-0.72062 -0.701203,-2.92105 -0.701203,-4.88986 0,-3.39631 -0.132886,-3.68643 -2.594594,-5.66472 -2.390962,-1.92143 -2.599055,-2.34382 -2.65142,-5.38191 -0.03125,-1.81327 -0.284146,-4.75631 -0.561981,-6.54009 -0.431002,-2.76716 -0.517878,-2.2526 -0.591823,3.50534 l -0.08667,6.74859 2.594594,2.22088 c 2.083328,1.78325 2.594595,2.65568 2.594595,4.42747 0,2.2125 1.849056,7.73515 2.404022,7.18018 0.162624,-0.16262 -0.01986,-0.88527 -0.405522,-1.60588 z m -18.34397,-9.52096 c 1.532944,-3.15526 1.774763,-5.24251 0.787058,-6.79346 -0.520122,-0.81672 -0.930321,-0.66047 -2.554335,0.97297 -2.467203,2.48154 -3.67704,7.16728 -2.089842,8.09403 1.837621,1.07298 2.389217,0.74784 3.857119,-2.27354 z M 33.921243,80.5946 c -0.662023,-3.68588 -1.731462,-4.97619 -1.260913,-1.52133 0.21402,1.57138 0.541634,3.10381 0.728031,3.4054 0.735179,1.18955 0.949093,0.43323 0.532882,-1.88407 z M 25.571352,58.86492 c 0.02148,-8.35595 0.312146,-12.32206 1.14791,-15.66295 1.376267,-5.50152 1.044061,-6.33 -0.487497,-1.21576 -1.298751,4.33683 -2.052237,17.40403 -1.370589,23.76917 0.253192,2.36427 0.510089,4.2987 0.570883,4.29873 0.06079,3e-5 0.123475,-5.03511 0.139293,-11.18919 z M 71.26239,52.27027 c 0.01326,-1.65953 -0.358,-1.14179 -0.891495,1.24325 -0.317885,1.42113 -0.257705,1.68354 0.223143,0.97297 0.362131,-0.53514 0.662889,-1.53243 0.668352,-2.21622 z m -3.673689,-14.0038 c 0.574543,-2.31683 1.239718,-5.46454 1.478168,-6.99491 l 0.433546,-2.7825 -1.719533,0.78347 c -1.486971,0.67751 -1.843134,0.61519 -2.633431,-0.46075 -0.887504,-1.20828 -0.966809,-1.19401 -2.745865,0.49395 l -1.831966,1.73816 -1.945946,-1.68482 c -1.523834,-1.31935 -1.987262,-1.47185 -2.136414,-0.70301 -0.283994,1.4639 2.154454,7.56027 4.744191,11.86096 1.255291,2.08461 2.470711,4.54071 2.700932,5.45798 0.406979,1.62154 0.448983,1.59619 1.515139,-0.91418 0.603106,-1.42007 1.566636,-4.47753 2.141179,-6.79435 z m 2.835832,6.01615 c -0.164461,-0.63112 -0.309835,-0.27181 -0.323054,0.79846 -0.01322,1.07027 0.121339,1.58664 0.299019,1.14748 0.17768,-0.43915 0.188496,-1.31483 0.02403,-1.94594 z M 19.545376,35.67568 c 0.192312,-3.12519 0.10933,-4.95156 -0.191566,-4.21622 -0.511064,1.24895 -0.869105,10.55185 -0.384872,10 0.130437,-0.14865 0.389834,-2.75135 0.576438,-5.78378 z m 55.399777,0.48648 c -0.179943,-0.44594 -0.327169,-0.0811 -0.327169,0.81081 0,0.8919 0.147226,1.25676 0.327169,0.81082 0.179944,-0.44595 0.179944,-1.17568 0,-1.62163 z M 44.47218,29.06757 c -0.207066,-0.51745 -0.360767,-0.36375 -0.391892,0.39189 -0.02817,0.68378 0.125143,1.06689 0.340683,0.85135 0.215541,-0.21554 0.238585,-0.775 0.05121,-1.24324 z m -3.603605,-2.95946 c 0.806835,-1.02879 0.783892,-1.05174 -0.244901,-0.2449 -1.080485,0.84737 -1.424095,1.38003 -0.890235,1.38003 0.134696,0 0.645507,-0.51081 1.135136,-1.13513 z m -0.880036,-8.47297 c 0.161961,-0.48589 -0.421783,-0.73766 -1.581081,-0.68194 -1.683417,0.0809 -1.706375,0.11311 -0.273227,0.38322 1.243054,0.23428 1.376364,0.42624 0.648648,0.93402 -0.78345,0.54667 -0.781067,0.60267 0.01647,0.38705 0.512838,-0.13865 1.047973,-0.59871 1.18919,-1.02235 z m 23.5,-2.36907 c 0,-0.16583 -0.656757,-0.61977 -1.45946,-1.00876 -1.401487,-0.67916 -1.409445,-0.66719 -0.200348,0.3015 1.323414,1.06027 1.659808,1.20361 1.659808,0.70726 z M 24.393944,11.28378 c -0.215541,-0.21554 -0.775,-0.23858 -1.243243,-0.0512 -0.517449,0.20707 -0.363747,0.36077 0.391892,0.3919 0.683783,0.0282 1.066891,-0.12515 0.851351,-0.34069 z M 41.026379,9.2166405 c 0.174408,-0.2822 -0.684041,-0.39621 -1.907665,-0.25336 -1.223623,0.14286 -2.22477,0.37374 -2.22477,0.51309 0,0.48816 3.818543,0.24816 4.132435,-0.25973 z m 2.43679,-1.91934 c 0.806835,-1.0288 0.783892,-1.05174 -0.244901,-0.2449 -1.080485,0.84737 -1.424094,1.38003 -0.890234,1.38003 0.134695,0 0.645506,-0.51081 1.135135,-1.13513 z m 17.2551,-2.5 c -0.215541,-0.21554 -0.775,-0.23859 -1.243244,-0.0512 -0.517448,0.20706 -0.363746,0.36077 0.391892,0.39189 0.683784,0.0282 1.066892,-0.12514 0.851352,-0.34068 z M 353.94555,103.25568 c -6.31893,-3.81224 -11.50001,-7.16279 -11.51352,-7.44567 -0.0135,-0.28287 1.11014,-2.03423 2.49701,-3.89189 7.36007,-9.8586 9.1398,-20.96912 4.96592,-31.0013 -5.56119,-13.36666 -7.26393,-20.86589 -6.5903,-29.0252 0.83603,-10.12626 5.20338,-21.04422 10.69857,-26.7453895 3.35215,-3.4778 4.93512,-3.89929 8.71422,-2.32028 1.70959,0.71432 20.26139,11.6581695 21.1213,12.4596295 0.13315,0.1241 -0.95765,1.58861 -2.424,3.25447 -1.46634,1.66586 -3.46955,4.67043 -4.45156,6.67682 -1.63264,3.33572 -1.78567,4.28654 -1.78771,11.10746 -0.002,7.31202 0.0644,7.65176 3.3703,17.18919 4.13025,11.91578 5.35316,16.96619 5.36561,22.15915 0.0203,8.46306 -2.94272,18.5207 -7.46521,25.33979 -3.45614,5.21123 -7.60855,9.26475 -9.44104,9.21619 -0.86385,-0.0229 -6.74067,-3.16073 -13.05959,-6.97297 z M 396.2453,55.13514 V 4.6278032e-7 h 22.37838 22.37838 V 55.13514 110.27028 H 418.62368 396.2453 Z m 25.15541,42.68535 0.18243,-7.58491 2.92651,-0.43886 2.92652,-0.43886 -0.19003,-4.30055 -0.19002,-4.30055 -2.5946,-0.32432 c -2.53887,-0.31736 -2.59459,-0.37986 -2.59459,-2.91004 0,-2.08785 0.24978,-2.62351 1.29729,-2.78201 4.36768,-0.6609 4.21622,-0.4688 4.21622,-5.34734 v -4.52818 h -8.75676 -8.75675 v 20.45768 20.45769 l 5.67567,-0.18741 5.67568,-0.18742 z m 2.67576,-52.7173 c 5.61461,-2.93443 8.78584,-10.54564 8.6576,-20.77886 -0.17223,-13.74216 -6.20649,-21.1822795 -16.42804,-20.2554195 -7.51142,0.68111 -10.51519,4.20047 -12.90021,15.1144895 -1.25382,5.73758 -1.25378,5.83238 0.006,11.625 2.05856,9.46834 4.32944,12.84483 10.06055,14.95867 2.87944,1.06204 7.90404,0.74748 10.60447,-0.66388 z M 416.59192,32.5946 c -1.63133,-3.28863 -1.60699,-11.73773 0.0444,-15.40541 l 1.16821,-2.5946 1.26013,2.79158 c 1.56899,3.47582 1.71634,11.85994 0.26929,15.3232 -0.5326,1.27471 -1.09596,2.31766 -1.25189,2.31766 -0.15593,0 -0.82649,-1.0946 -1.49012,-2.43243 z m 152.84258,76.64908 c -9.15641,-2.41569 -16.89224,-8.20277 -20.30462,-15.18962 -0.95832,-1.96216 -2.47372,-6.45094 -3.36754,-9.97507 L 544.1372,77.6715 V 41.10602 4.5405405 h 14.91892 14.91892 l 0.01,36.8108095 c 0.007,28.37539 0.19756,37.18242 0.82997,38.43244 0.66695,1.3183 1.30049,1.62162 3.3871,1.62162 4.45907,0 4.34703,1.06338 4.24349,-40.27729 L 582.354,4.5405405 h 14.97934 14.97933 L 612.07694,42.64865 c -0.2114,34.17322 -0.35467,38.50997 -1.38751,42 -3.70577,12.52197 -12.62747,21.64224 -24.09221,24.62842 -4.7195,1.22927 -12.43314,1.21427 -17.16223,-0.0334 z M 121.00206,107.24325 C 120.76422,107.00541 120.56963,89.34595 120.56963,68 V 29.18919 h -7.45946 -7.45946 V 16.86487 4.5405405 h 29.83784 29.83783 V 16.5193 28.49805 l -7.29729,0.18341 -7.2973,0.18341 -0.16719,39.4054 -0.16718,39.40541 h -14.48147 c -7.9648,0 -14.67605,-0.19459 -14.91389,-0.43243 z m 37.18919,-0.13428 c 0,-0.43242 19.53945,-60.65016 31.37975,-96.70783 1.01697,-3.0970395 1.83981,-4.4526695 3.14709,-5.1848695 1.6509,-0.92466 1.86394,-0.89756 3.16396,0.40246 0.9721,0.9721 6.27514,16.3782695 17.52559,50.9145995 8.87244,27.2364 16.13245,49.88559 16.13334,50.33154 0.001,0.62204 -3.06052,0.81081 -13.15123,0.81081 h -13.15286 l -1.70753,-1.94594 c -1.62654,-1.85364 -1.95046,-1.94595 -6.82827,-1.94595 -4.57538,0 -5.4475,0.20724 -8.18916,1.94595 l -3.06844,1.94594 h -12.62612 c -6.94437,0 -12.62612,-0.25502 -12.62612,-0.56671 z m 37.58447,-22.90735 c -1.93429,-6.38853 -1.97708,-6.40812 -3.27412,-1.49891 -0.6598,2.49729 -1.20631,4.75946 -1.21446,5.02702 -0.008,0.26757 1.27194,0.48649 2.84465,0.48649 h 2.85945 z M 236.02909,56.10811 V 4.5405405 h 14.59459 14.5946 V 42.81081 81.08108 h 7.78378 7.78378 v 12.87111 12.87111 l -10.8063,0.42619 c -5.94346,0.23441 -16.01373,0.42619 -22.37837,0.42619 h -11.57208 z m 217.2973,0 V 4.5405405 h 1.56857 c 0.86271,0 2.02804,0.17632 2.58962,0.39182 0.56159,0.2155 8.09385,10.4911695 16.73836,22.8348295 8.64452,12.34366 16.33215,23.15781 17.08362,24.03146 l 1.36632,1.58844 9.93962,-14.20706 C 523.97833,8.6410705 525.85255,6.1455705 528.56935,4.6186405 l 2.59487,-1.4584 V 55.41796 107.67568 H 516.90796 502.6517 l -0.17617,-12.43295 c -0.10733,-7.5746 -0.42964,-12.50725 -0.82482,-12.62309 -0.35676,-0.10457 -2.57151,2.41573 -4.92167,5.60067 l -4.27303,5.79079 -4.48373,-6.22582 -4.48373,-6.22583 -0.40192,12.2473 c -0.22106,6.73602 -0.43998,12.61217 -0.48649,13.05812 -0.0649,0.62212 -3.48102,0.81081 -14.67916,0.81081 h -14.59459 z m 171.40152,-0.16002 0.16605,-51.7275895 5.18918,-0.8379 c 7.8376,-1.26554 25.07851,-0.66842 32.10811,1.11202 14.26376,3.61269 25.06299,12.7117495 28.60894,24.1049195 1.53519,4.93258 1.62416,13.27961 0.19343,18.1476 -1.49403,5.08338 -5.01747,11.49896 -8.72038,15.87834 -1.877,2.21991 -3.21712,4.44368 -3.21712,5.33841 0,0.84345 3.7868,10.05068 8.41512,20.46051 l 8.41513,18.92696 -15.66819,0.17396 c -8.61751,0.0957 -15.87242,-0.0503 -16.12203,-0.32433 -0.24961,-0.27405 -2.30701,-6.1172 -4.57199,-12.98477 -2.47286,-7.49787 -4.44719,-12.48649 -4.94174,-12.48649 -0.63825,0 -0.8236,2.91963 -0.8236,12.97298 v 12.97297 h -14.59848 -14.59847 z m 34.43323,-7.74895 c 2.16138,-1.10005 4.29429,-5.37206 4.30955,-8.63157 0.0264,-5.6305 -2.41571,-9.39115 -6.73026,-10.36424 l -2.33296,-0.52617 v 10.67811 10.6781 l 1.45946,-0.45021 c 0.8027,-0.24761 2.2851,-0.87043 3.29421,-1.38402 z m 43.24633,8.03098 V 4.6438005 l 4.36384,-0.46733 c 6.06033,-0.64901 19.5833,0.0572 25.79832,1.34732 11.09255,2.30256 21.09105,7.6021295 28.34098,15.0217695 4.69078,4.80058 7.90444,10.16951 10.02703,16.75174 3.1592,9.79678 2.6725,26.74179 -1.08148,37.65291 -4.42538,12.86262 -13.86379,23.23486 -25.49052,28.01259 -8.90081,3.65757 -12.13051,4.18935 -27.52574,4.53222 l -14.43243,0.32142 z m 35.3649,19.4946 c 3.21098,-3.21098 4.54247,-6.94804 5.50597,-15.45344 1.03815,-9.16427 -0.57384,-18.43855 -4.10914,-23.6412 -1.5175,-2.23321 -5.31722,-5.49494 -6.40126,-5.49494 -0.28745,0 -0.52263,10.65405 -0.52263,23.67567 v 23.67568 h 1.38264 c 0.76217,0 2.62202,-1.23937 4.14442,-2.76177 z M 782.19125,56.10811 V 4.5405405 h 22.37838 22.37838 v 11.9999995 12 h -7.48004 -7.48005 l 0.18275,7.62162 0.18275,7.62163 7.29729,0.1834 7.2973,0.18341 v 11.33011 11.3301 h -7.4807 -7.48071 l 0.18341,7.2973 0.18341,7.2973 7.29729,0.18341 7.2973,0.1834 v 12.95173 12.95173 h -22.37838 -22.37838 z m 55.94207,-0.16216 0.16604,-51.7297295 4.86487,-0.8093 c 7.38352,-1.22829 23.35737,-1.1864 29.04701,0.0762 10.76069,2.38789 21.35203,8.1161295 26.09063,14.1109095 4.93719,6.24602 7.09021,12.50897 7.11677,20.70214 0.0292,8.99136 -3.01158,16.77042 -9.31737,23.83648 -2.55093,2.85848 -3.63974,4.61261 -3.63974,5.86377 0,0.98185 3.60027,9.80055 8.00061,19.5971 4.40034,9.79655 8.18773,18.32781 8.41641,18.95834 0.39145,1.0793 -0.52018,1.13628 -15.56852,0.97298 l -15.98431,-0.17346 -4.48615,-13.45946 c -2.46739,-7.40271 -4.75372,-13.45946 -5.08075,-13.45946 -0.34148,0 -0.59459,5.79852 -0.59459,13.62162 v 13.62162 h -14.59848 -14.59848 z m 35.51469,-8.4921 c 3.61324,-3.61324 4.06794,-11.87683 0.86308,-15.68558 -1.61123,-1.91484 -5.53391,-3.62299 -6.68553,-2.91124 -0.40314,0.24915 -0.66133,4.31897 -0.66133,10.4245 V 49.2973 h 2.32016 c 1.68443,0 2.82528,-0.50511 4.16362,-1.84345 z M 289.86693,55.78379 V 4.5405405 h 22.37837 22.37838 v 11.9999995 12 h -7.48004 -7.48005 l 0.18275,7.62162 0.18275,7.62163 7.2973,0.1834 7.29729,0.18341 v 11.33011 11.3301 h -7.4807 -7.4807 l 0.1834,7.2973 0.18341,7.2973 7.2973,0.18341 7.29729,0.1834 v 12.62741 12.6274 H 312.2453 289.86693 Z M 52.289988,19.07172 c -0.213257,-0.21326 -0.227817,-0.80449 -0.03236,-1.31385 0.272677,-0.71059 0.564187,-0.75282 1.252605,-0.18149 0.493472,0.40955 0.897222,1.00078 0.897222,1.31385 0,0.64296 -1.525273,0.77369 -2.11747,0.18149 z M 29.434485,6.4864905 c -0.220488,-0.35676 -0.09177,-0.64865 0.286043,-0.64865 0.377811,0 0.686929,0.29189 0.686929,0.64865 0,0.35675 -0.128719,0.64865 -0.286043,0.64865 -0.157323,0 -0.466442,-0.2919 -0.686929,-0.64865 z"
       id="path1" />
  </g>
</svg>
