<svg viewBox="0 0 100 300" xmlns="http://www.w3.org/2000/svg">
  <!-- Ornate Bow (top part) -->
  <path d="
    M 50 20
    C 30 20, 15 30, 15 50
    C 15 65, 25 75, 35 80
    C 25 85, 20 95, 20 105
    C 20 125, 35 135, 50 135
    C 65 135, 80 125, 80 105
    C 80 95, 75 85, 65 80
    C 75 75, 85 65, 85 50
    C 85 30, 70 20, 50 20
    Z
    
    <!-- Inner cutouts -->
    M 35 50
    C 35 60, 45 70, 50 65
    C 55 70, 65 60, 65 50
    C 65 40, 55 35, 50 40
    C 45 35, 35 40, 35 50
    
    M 35 105
    C 35 115, 45 120, 50 115
    C 55 120, 65 115, 65 105
    C 65 95, 55 90, 50 95
    C 45 90, 35 95, 35 105
  "
  fill="currentColor"
  stroke="none"
  />
  
  <!-- Stem -->
  <path d="
    M 45 135
    L 45 260
    L 55 260
    L 55 135
    Z
  "
  fill="currentColor"
  />
  
  <!-- Bit (teeth) -->
  <path d="
    M 45 260
    L 55 260
    L 55 280
    L 70 280
    L 70 270
    L 60 270
    L 60 260
    Z
  "
  fill="currentColor"
  />
</svg> 