<svg
  viewBox="0 0 32 32"
  fill="none"
  xmlns="http://www.w3.org/2000/svg"
>
  <!-- Lock shackle (top arch) -->
  <path
    d="M10 12C10 8 11 4 16 4s6 4 6 8"
    stroke="#111827"
    stroke-width="3"
    stroke-linecap="round"
  />
  
  <!-- Main lock body with curved sides -->
  <path
    d="M8 12h16v12 
       c0 2-0.5 4-2 4
       h-12
       c-1.5 0-2-2-2-4
       v-12
       c0 0 0.5-1 2-1
       h12
       c1.5 0 2 1 2 1"
    fill="#111827"
  />
  
  <!-- Rivets -->
  <circle cx="10" cy="14" r="1" fill="#f7f3e9" />
  <circle cx="22" cy="14" r="1" fill="#f7f3e9" />
  
  <!-- Screw -->
  <circle cx="16" cy="16" r="1" fill="#f7f3e9" />
  <path
    d="M15.7 16.3l0.6-0.6"
    stroke="#f7f3e9"
    stroke-width="0.5"
  />
  
  <!-- Keyhole -->
  <path
    d="M16 17.5v4"
    stroke="#f7f3e9"
    stroke-width="2"
    stroke-linecap="round"
  />
  <circle cx="16" cy="21.5" r="2" fill="#111827" stroke="#f7f3e9" stroke-width="1" />
</svg> 