<svg xmlns="http://www.w3.org/2000/svg" xml:space="preserve" width="151.353" height="228.35" viewBox="0 0 40.045 60.417">
  <g style="fill:#000">
    <path d="M69.963 94.19c0-.163.017-.23.039-.148a.695.695 0 0 1 0 .296c-.022.082-.039.015-.039-.148zm.003-1.608c0-.21.017-.296.037-.19.02.104.02.275 0 .38-.02.105-.037.02-.037-.19zm-18.799-1.27c0-.163.017-.23.039-.149a.695.695 0 0 1 0 .297c-.022.081-.039.015-.039-.148zm-3.569-1.066c.004-.098.024-.119.051-.051.025.061.022.134-.007.162-.028.028-.048-.022-.044-.11zm17.718-1.728c0-.396.015-.558.033-.36.018.198.018.521 0 .72-.018.197-.033.035-.033-.36zm.414.169c0-.163.017-.23.038-.148a.695.695 0 0 1 0 .296c-.02.082-.038.015-.038-.148zm-9.665-.134c.004-.099.024-.119.05-.051.025.06.022.134-.006.162-.028.028-.048-.022-.044-.111zm22.43-1.083c0-.018.066-.085.148-.149.134-.105.137-.102.032.032-.11.141-.18.186-.18.117zm.338-.34c0-.017.067-.083.149-.147.134-.106.137-.103.031.032-.11.14-.18.186-.18.116zm-13.201-1.202c.004-.098.024-.119.051-.051.025.061.022.134-.007.162-.028.028-.048-.022-.044-.11zm18.034-9.567c.004-.099.024-.119.051-.051.025.06.022.134-.007.162-.028.028-.048-.022-.044-.111zm-39.78-1.475c0-.163.017-.23.038-.148a.695.695 0 0 1 0 .296c-.02.082-.038.015-.038-.148zm37.67-.508c0-.116.02-.164.043-.106a.327.327 0 0 1 0 .212c-.024.058-.043.01-.043-.106zm2.29-.211c0-.14.02-.187.041-.105a.485.485 0 0 1-.003.254c-.023.058-.04-.01-.039-.15zm-29.644-.6c.004-.099.024-.119.051-.051.025.06.022.134-.007.162-.028.028-.048-.022-.044-.111zm-5.588-7.197c.004-.098.024-.119.051-.051.025.061.022.134-.007.162-.028.028-.048-.022-.044-.11zm0-3.81c.004-.098.024-.119.051-.051.025.061.022.134-.007.162-.028.028-.048-.022-.044-.11zm12.82-4.353c.085-.093.173-.17.196-.17.023 0-.027.077-.111.17-.084.093-.172.17-.196.17-.023 0 .027-.077.111-.17zm16.367-.058c.062-.024.135-.021.163.007.028.028-.022.048-.111.044-.099-.004-.12-.024-.052-.05zm-10.578-4.662c-.105-.135-.102-.138.032-.032.141.11.186.18.116.18-.017 0-.084-.067-.148-.148zm-17.593-.325c.004-.098.024-.119.051-.051.025.061.022.134-.007.162-.028.028-.048-.022-.044-.11zm10.852-4.157a.695.695 0 0 1 .296 0c.082.02.015.038-.148.038-.163 0-.23-.017-.148-.038zM48.97 48.83a5.49 5.49 0 0 1 .762 0c.196.018.014.033-.405.033-.42 0-.58-.015-.357-.033zm30.057 0c.317-.017.812-.017 1.101 0 .29.016.03.03-.575.03s-.842-.014-.526-.03zm-9.253-1.038c-.076-.05-.087-.083-.026-.083.055-.001.124.036.153.083.065.105.036.105-.127 0zm-.778-1.159c.061-.024.134-.021.162.007.029.028-.021.048-.11.045-.1-.005-.12-.025-.052-.052zM57.317 103.017c-.105-.135-.102-.138.032-.032.141.11.186.18.116.18-.017 0-.084-.067-.148-.148zm-8.11-9.3c.004-.098.024-.118.05-.05.025.06.022.133-.006.162-.028.028-.048-.022-.044-.111zm.006-.881c0-.117.02-.164.043-.106a.327.327 0 0 1 0 .211c-.023.059-.043.011-.043-.105zm6.95-.762c0-.163.017-.23.038-.149a.695.695 0 0 1 0 .297c-.021.081-.039.015-.039-.148zm-4.065-.254c0-.163.018-.23.04-.149a.695.695 0 0 1 0 .297c-.022.081-.04.015-.04-.148zm4.068-1.101c0-.21.016-.295.036-.19.02.104.02.276 0 .38-.02.105-.036.02-.036-.19zm9.146-3.302c0-.256.016-.361.035-.233.02.128.02.338 0 .466-.019.128-.035.023-.035-.233zM54.117 76.954c.004-.1.025-.12.052-.052.024.061.021.134-.007.163-.028.028-.048-.022-.045-.111zm17.611-1.44c.004-.098.024-.119.051-.051.025.061.022.134-.007.162-.028.028-.048-.022-.044-.11zm-17.773-.458c0-.117.019-.164.042-.106a.327.327 0 0 1 0 .211c-.023.059-.042.011-.042-.105zm27.604-.297c.002-.14.02-.186.042-.104a.485.485 0 0 1-.003.254c-.023.057-.04-.01-.039-.15zM54.287 71.45c.004-.098.024-.119.05-.051.025.061.022.134-.006.162-.028.028-.048-.022-.044-.11zm21.505-.677c.004-.099.024-.119.051-.051.025.06.022.134-.007.162-.028.028-.048-.022-.044-.111zm.085-.931c.004-.1.024-.12.05-.052.025.061.022.134-.006.163-.028.028-.048-.022-.044-.111zm-21.76-.424c.004-.098.025-.119.052-.051.024.061.021.134-.007.162-.028.028-.048-.022-.045-.11zm-2.878-4.572c.004-.098.024-.119.05-.051.025.061.022.134-.006.162-.028.028-.048-.022-.044-.11zm-2.7-.247c.002-.14.02-.186.042-.104a.485.485 0 0 1-.003.254c-.023.057-.04-.01-.039-.15zm2.713-1.65c0-.164.017-.23.038-.149a.695.695 0 0 1 0 .296c-.02.082-.038.015-.038-.148zm26.572-.897c.004-.098.024-.119.051-.051.025.061.022.134-.007.162-.028.028-.048-.022-.044-.11zm1.202-1.728c0-.21.016-.296.036-.19.02.104.02.275 0 .38-.02.105-.036.02-.036-.19zm-27.286-.588c0-.044.038-.103.084-.132.048-.03.062.005.033.08-.056.147-.117.174-.117.052zm21.654-2.009a.327.327 0 0 1 .211 0c.058.024.01.043-.106.043-.116 0-.164-.019-.105-.043zm.682-.001c.061-.025.134-.022.162.006.029.029-.021.049-.11.045-.1-.004-.12-.024-.052-.051zm-.423-.847c.06-.024.134-.021.162.007.028.028-.022.048-.111.044-.099-.004-.119-.024-.051-.051zm1.688.002a.327.327 0 0 1 .212 0c.058.023.01.043-.106.043-.117 0-.164-.02-.106-.043zm-6.001-1.024c-.105-.134-.102-.137.032-.032.081.064.148.131.148.149 0 .07-.07.024-.18-.117zm-9.049-2.053c-.11-.07-.107-.082.017-.083.078 0 .166.037.195.083.066.107-.046.107-.212 0zm2.202-4.52c0-.017.066-.083.148-.147.134-.106.137-.103.032.032-.11.14-.18.186-.18.116zm-5.666-.355c.004-.099.024-.119.05-.051.025.06.022.134-.006.162-.028.028-.048-.022-.044-.111zm18.727-.179a.485.485 0 0 1 .254.003c.057.024-.01.041-.15.04-.14-.002-.186-.021-.104-.043zm-13.18-.689c-.024-.039.01-.07.076-.07s.1.031.076.07c-.024.039-.058.07-.076.07-.017 0-.052-.031-.076-.07zm7.13-.326c.061-.024.134-.021.162.007.029.028-.021.048-.11.044-.1-.004-.12-.024-.052-.05z" style="fill:#000;fill-opacity:1" transform="translate(-43.857 -46.615)"/>
    <path d="M68.257 93.294c.004-.098.024-.119.05-.051.025.061.022.134-.006.162-.028.028-.048-.022-.044-.11zm-12.1-.797c0-.117.018-.164.042-.106a.327.327 0 0 1 0 .212c-.024.058-.043.01-.043-.106zm.01-2.498c0-.233.017-.318.036-.19.02.13.02.32 0 .424-.02.104-.037-.001-.036-.234zm9.143-3.344c0-.21.016-.295.036-.19.02.104.02.276 0 .38-.02.105-.036.02-.036-.19zm-16.798.106c-.105-.135-.102-.138.032-.032.081.064.148.13.148.148 0 .07-.07.025-.18-.116zm17.139-1.545c0-.257.016-.361.035-.233.02.128.02.337 0 .465s-.035.024-.035-.232zm11.7.169c.085-.093.173-.17.196-.17.024 0-.026.077-.11.17-.085.093-.173.17-.196.17-.023 0 .026-.077.11-.17zm-23.898-5.588c0-.163.017-.23.039-.148a.695.695 0 0 1 0 .296c-.022.082-.039.015-.039-.148zm-7.37-5.63c.003-.14.022-.187.043-.105a.485.485 0 0 1-.003.254c-.023.058-.04-.01-.04-.15zm25.899-1.531c.004-.1.024-.12.051-.052.025.061.022.134-.007.163-.028.028-.048-.022-.044-.111zm-17.526-3.218c.004-.098.024-.119.051-.051.025.061.022.134-.007.162-.028.028-.048-.022-.044-.11zm-3.309-4.602c0-.044.038-.103.084-.132.048-.03.062.005.033.08-.056.147-.117.174-.117.052zm26.332-.635c0-.067.034-.143.076-.17.043-.026.057.03.033.122-.052.198-.11.223-.11.048zm.402-2.192a1.355 1.355 0 0 1-.061-.424c.002-.225.016-.244.09-.118.048.083.075.273.06.424-.02.214-.04.24-.09.118zm-29.182-.36c.004-.099.024-.119.05-.051.025.06.022.134-.006.162-.028.028-.048-.022-.044-.111zm2.66-.374c-.029-.047-.012-.085.037-.085.05 0 .09.038.09.085 0 .046-.017.085-.037.085-.02 0-.061-.039-.09-.085zm.722-2.164c.002-.044.059-.154.127-.244.069-.09.123-.129.122-.085-.001.044-.059.154-.127.244s-.123.129-.122.085zm11.23-.01a.233.233 0 0 1-.056-.143c0-.053.04-.048.1.013.055.055.08.12.056.144-.024.024-.069.018-.1-.013zm-1.637-1.167c0-.067.033-.103.072-.079.04.025.05.08.023.124-.068.11-.095.098-.095-.045zm7.802-3.284-.845-.868.868.845c.806.785.906.89.845.89-.013 0-.403-.39-.868-.867zm-1.31.19c-.077-.05-.087-.082-.027-.083.056 0 .125.037.153.083.065.105.036.105-.127 0zm-1.112-1.249c-.105-.134-.102-.137.032-.032.14.111.186.18.116.18-.018 0-.084-.066-.148-.148zM68.257 92.617c.004-.099.024-.119.05-.051.025.06.022.134-.006.162-.028.028-.048-.022-.044-.111zm1.703-.67c.002-.14.02-.187.042-.105a.485.485 0 0 1-.003.254c-.023.058-.04-.01-.04-.15zm-4.227-4.022c0-.21.017-.295.037-.19.02.104.02.276 0 .38-.02.105-.037.02-.037-.19zm-13.772-1.54c.025-.04.08-.05.124-.023.11.069.098.095-.045.095-.068 0-.103-.032-.079-.072zm24.417-.016c0-.018.067-.084.148-.148.134-.106.137-.103.032.032-.11.14-.18.186-.18.116zm-32.42-10.685c.003-.1.023-.12.05-.052.025.061.022.134-.006.163-.028.028-.048-.022-.045-.111zm-.085-1.27c.004-.1.024-.12.05-.052.025.061.022.134-.006.163-.028.028-.048-.022-.044-.111zm39.997-12.99c0-6.915.01-9.744.022-6.286.012 3.457.012 9.115 0 12.573-.012 3.457-.022.628-.022-6.287zm-32.59 4.597c-.046-.12-.036-.13.047-.047.058.057.084.125.058.151-.026.027-.073-.02-.105-.104zm20.018-5.899c0-.017.067-.084.148-.148.134-.105.137-.102.032.032-.11.141-.18.186-.18.116zm1.016-.931c0-.018.067-.084.148-.148.134-.106.137-.103.032.032-.11.14-.18.186-.18.116zm-3.927-4.302c.024-.04.08-.05.123-.023.11.069.098.095-.045.095-.067 0-.103-.032-.078-.072zm-7.863-1.14a.327.327 0 0 1 .212 0c.058.023.01.042-.106.042-.116 0-.164-.02-.106-.043zM49.63 53.5c.004-.099.024-.119.051-.051.025.06.022.134-.007.162-.028.028-.048-.022-.044-.111zm22.397-.728c.025-.04.08-.05.124-.023.11.068.098.095-.045.095-.068 0-.103-.033-.079-.072zm4.966-1.737a.485.485 0 0 1 .254.003c.058.024-.01.041-.15.04-.139-.002-.186-.021-.104-.043zm-4.72-.363c-.03-.048.004-.063.079-.034.147.057.173.117.052.117-.044 0-.103-.037-.132-.083zm-22.311-1.134c0-.018.067-.084.148-.148.134-.106.137-.103.032.032-.11.14-.18.186-.18.116zm16.833-.534c.06-.024.134-.021.162.007.028.028-.022.048-.111.044-.099-.004-.119-.024-.051-.05zm-16.367-.111-.339-.061.36-.012c.198-.007.36.026.36.073 0 .046-.01.079-.021.072a4.689 4.689 0 0 0-.36-.072zm23.738-.064c-.105-.134-.102-.137.032-.032.14.11.186.18.116.18-.018 0-.084-.066-.148-.148zm3.588.003c.128-.02.337-.02.466 0 .128.02.023.035-.233.035s-.361-.016-.233-.035zM62.421 106.213c0-.117.02-.164.043-.106a.327.327 0 0 1 0 .212c-.023.058-.043.01-.043-.106zm3.903-2.244c.001-.186.018-.252.039-.147.02.105.02.258-.002.339-.021.08-.038-.005-.037-.192zm3.287-3.563c.004-.098.024-.119.052-.051.024.061.021.134-.007.162-.028.028-.048-.022-.045-.11zm0-1.862c.004-.1.024-.12.052-.052.024.061.021.134-.007.163-.028.028-.048-.022-.045-.111zm7.282-1.778c.004-.1.024-.12.05-.052.025.061.022.134-.006.163-.028.028-.048-.022-.044-.111zm0-2.202c.004-.098.024-.119.05-.051.025.061.022.134-.006.162-.028.028-.048-.022-.044-.11zm-9.043-1.982c0-.21.016-.296.036-.19.02.104.02.275 0 .38-.02.105-.036.02-.036-.19zm2.11-1.059c.002-.14.02-.186.042-.104a.485.485 0 0 1-.003.254c-.023.057-.04-.01-.04-.15zM65.73 87.29c.001-.186.019-.253.039-.147.02.105.02.257-.002.338-.021.081-.038-.005-.037-.191zm-.425-1.228c0-.163.018-.23.04-.148a.695.695 0 0 1 0 .296c-.022.082-.04.015-.04-.148zm-7.48-1.08c-.106-.134-.103-.137.031-.031.141.11.186.18.116.18-.017 0-.084-.067-.148-.148zm.535-.232c.001-.14.02-.187.042-.104a.485.485 0 0 1-.003.254c-.024.057-.041-.01-.04-.15zm7.278-.127c0-.117.019-.164.042-.106a.327.327 0 0 1 0 .212c-.023.058-.042.01-.042-.106zm-11.352-9.278c.004-.099.024-.119.05-.051.025.06.022.134-.006.162-.028.028-.048-.022-.044-.111zm27.381-12.947c0-6.193.01-8.715.023-5.603.012 3.112.012 8.18 0 11.261-.012 3.081-.023.535-.023-5.658zm-27.375 9.356c0-.117.02-.164.043-.106a.327.327 0 0 1 0 .211c-.023.059-.043.011-.043-.105zm20.646-2.366c0-.044.037-.103.083-.132.048-.03.063.005.034.08-.057.147-.117.174-.117.052zm.697-3.646c0-.163.017-.23.038-.148a.695.695 0 0 1 0 .296c-.02.082-.038.015-.038-.148zm-24.397-1.234c.004-.1.024-.12.05-.052.025.061.022.134-.006.163-.028.028-.048-.022-.044-.111zm.014-.925c.001-.186.019-.252.039-.147.02.105.02.258-.002.339-.021.08-.038-.005-.037-.192zm26.656-1.192c.004-.099.024-.119.05-.051.025.06.022.134-.006.162-.028.028-.048-.022-.044-.111zm-3.918-5.512c.062-.024.135-.021.163.007.028.028-.022.048-.111.044-.099-.004-.12-.024-.052-.05zm-12.825-.743c0-.068.033-.103.072-.079.04.025.05.08.023.124-.068.11-.095.098-.095-.045zm6.895-.444a.925.925 0 0 1 .338.001c.081.022-.005.038-.191.037-.187 0-.253-.018-.147-.038zm-1.244-1.344c.004-.1.025-.12.052-.052.024.061.021.134-.007.163-.028.028-.048-.022-.045-.111zm-5.949-.602c.061-.024.134-.021.162.007.029.028-.021.048-.11.045-.1-.005-.12-.025-.052-.052zm7.54-.175c-.105-.134-.102-.137.033-.032.14.111.185.18.116.18-.018 0-.085-.066-.148-.148zm-15.313-.275c0-.046.04-.084.09-.084.049 0 .065.038.037.084-.03.047-.07.085-.09.085-.02 0-.037-.038-.037-.085zm19.016-.324c-.024-.04.01-.07.076-.07s.1.03.076.07c-.024.038-.058.07-.076.07-.018 0-.052-.032-.076-.07zm2.281-.77c-.027-.044-.016-.1.023-.124.04-.024.072.011.072.079 0 .143-.027.155-.095.044zm3.109-1.168c.129-.02.32-.019.423.001.104.02 0 .036-.234.036-.232 0-.318-.017-.189-.037zm-14.638-2.003a.398.398 0 0 1 .072-.185c.03-.029.044.007.034.08a.398.398 0 0 1-.072.185c-.03.028-.044-.007-.034-.08zm-.328-1.238c.084-.093.172-.17.196-.17.023 0-.027.077-.111.17-.085.093-.173.17-.196.17-.023 0 .027-.077.111-.17zm6.816-.005c0-.05.038-.066.084-.037.047.028.085.069.085.09 0 .02-.038.037-.085.037-.046 0-.084-.04-.084-.09zM69.621 100.075c.002-.14.02-.187.042-.105a.485.485 0 0 1-.003.254c-.023.058-.04-.01-.039-.15zm0-1.186c.002-.14.02-.186.042-.104a.485.485 0 0 1-.003.254c-.023.057-.04-.01-.039-.15zm-7.082-3.084c-.027-.044-.017-.1.023-.124.04-.024.072.011.072.08 0 .142-.027.155-.095.044zm7.411-.817c.004-.1.024-.12.051-.052.025.061.022.134-.007.163-.028.028-.048-.022-.044-.111zm8.569-1.687c0-.233.017-.318.036-.19.02.13.02.32 0 .424-.02.104-.037-.001-.036-.234zm-10.262-.345c.004-.1.024-.12.05-.052.025.061.022.134-.006.163-.028.028-.048-.022-.044-.111zm1.7-1.814c0-.116.019-.164.042-.106a.327.327 0 0 1 0 .212c-.023.058-.042.01-.042-.106zM56.149 89.4c.004-.1.024-.12.052-.052.024.061.021.134-.007.163-.028.028-.048-.022-.045-.111zm9.58-2.66c0-.163.018-.23.04-.149a.695.695 0 0 1 0 .297c-.022.081-.04.015-.04-.148zm13.443-.032c0-.018.067-.085.148-.149.134-.105.137-.102.032.032-.11.141-.18.186-.18.117zM65.385 83.86c0-.117.019-.164.042-.106a.327.327 0 0 1 0 .212c-.023.058-.042.01-.042-.106zm6.421-3.588c0-.018.067-.084.148-.148.134-.106.137-.103.032.032-.11.14-.18.186-.18.116zm-25.732-5.775c.004-.098.024-.119.051-.051.025.061.022.134-.007.162-.028.028-.048-.022-.044-.11zm-2.191-.5c.001-.14.02-.187.042-.105a.485.485 0 0 1-.003.254c-.024.057-.041-.01-.04-.15zm37.764-.128c0-.163.017-.23.039-.148a.695.695 0 0 1 0 .296c-.022.082-.039.015-.039-.148zm-27.76-.762c0-.442.014-.623.032-.402a6.19 6.19 0 0 1 0 .804c-.018.222-.032.04-.032-.402zm21.514-.937c-.03-.05-.038-.108-.016-.13.023-.023.063.018.09.09.058.15.01.175-.074.04zm2-7.748c.004-.099.024-.119.05-.051.025.06.022.134-.006.162-.028.028-.048-.022-.044-.111zm-28.787-1.27c.004-.099.024-.119.051-.051.025.06.022.134-.007.162-.028.028-.048-.022-.044-.111zm16.08-2.326c0-.143.033-.239.073-.214.069.042.031.473-.04.473-.018 0-.033-.117-.033-.26zm-1.392-2.172c-.045-.12-.036-.13.048-.047.058.057.084.125.058.151-.026.027-.074-.02-.106-.104zm-3.835-3.893a.485.485 0 0 1 .254.003c.058.023-.01.04-.15.039-.139-.002-.186-.021-.104-.042zm-9.837-1.007c.004-.099.024-.119.051-.051.025.06.022.134-.007.162-.028.028-.048-.022-.044-.111zm11.492-.009c.061-.024.134-.021.162.007.029.028-.021.048-.11.045-.1-.004-.12-.025-.052-.052zm5.847-.429c-.105-.134-.102-.137.032-.032.082.064.148.131.148.149 0 .07-.07.024-.18-.117zm5.387-.02c-.028-.047-.012-.085.038-.085.049 0 .09.038.09.084 0 .047-.017.085-.038.085-.02 0-.06-.038-.09-.085zm-6.493-.482c.062-.024.135-.021.163.007.028.028-.022.048-.111.044-.099-.004-.12-.024-.052-.05zm12.528-1.782c.2-.018.504-.018.677 0 .174.019.01.033-.362.033s-.514-.015-.315-.033zm-23.75-.25a.485.485 0 0 1 .254.002c.058.024-.01.041-.15.04-.139-.002-.186-.021-.104-.043zm-4.002-.736c0-.018.067-.084.149-.148.134-.106.137-.103.031.032-.11.14-.18.186-.18.116zm11.515-.508c0-.018.067-.084.148-.148.134-.106.137-.103.032.032-.11.14-.18.186-.18.116zm14.881-.705a.925.925 0 0 1 .339.001c.08.022-.005.038-.192.037-.186 0-.252-.018-.147-.038zm-5.398-.538c0-.05.038-.066.084-.037.047.028.085.069.085.09 0 .02-.038.037-.085.037-.046 0-.084-.04-.084-.09z" style="fill:#000;fill-opacity:1" transform="translate(-43.857 -46.615)"/>
    <path d="M63.013 106.931c-.61-.17-.607-.167-.557-.574.051-.414-.076-.693-.22-.483-.047.07-.11.233-.138.362-.028.129-.08.252-.115.274-.074.046-.892-.306-1.13-.486-.15-.113-.144-.138.138-.579.359-.561.85-1.85 1.078-2.83.093-.4.17-.766.17-.813 0-.366-.545.826-1.14 2.494-.214.6-.436 1.18-.494 1.29-.104.2-.108.2-.4.054l-.295-.147-.042-1.73-.042-1.732-.285.334c-.219.258-.249.276-.131.08 1.221-2.031 1.946-3.374 2.483-4.597.364-.827.81-2.122.751-2.18-.019-.019-.308.508-.644 1.17-.335.663-.784 1.528-.998 1.924-.84 1.556-1.14 2.129-1.849 3.535-.404.803-.765 1.46-.802 1.46-.269 0-1.08-.824-1.732-1.758-.396-.568-1.577-2.649-1.577-2.778 0-.054.415-.762.921-1.574.507-.812 1.043-1.684 1.192-1.937.148-.254.35-.59.448-.75l.178-.287-.196-.159c-.177-.143-.214-.147-.375-.033-.436.31-.937.555-1.55.76-1.011.336-1.03.318-.456-.455.275-.372.608-.895.74-1.165.226-.463.24-.561.27-1.844a39.73 39.73 0 0 0-.028-2.46l-.059-1.107-.751-.439c-.413-.241-.781-.438-.818-.436-.036.001-.218.24-.404.53-1.491 2.32-2.075 3.427-2.075 3.933 0 .54.308 1.416.896 2.55.492.948.525 1.041.348.997-.75-.188-1.31-.625-1.567-1.222-.097-.224-.258-.882-.358-1.461-.283-1.634-.171-2.457.635-4.68l.392-1.083-.186-.301-.187-.302-.157.2c-.82 1.047-2.064 3.38-2.407 4.52-.21.699-.23.885-.238 2.273l-.008 1.512-.36-.41c-.401-.455-.97-1.562-1.107-2.148-.186-.804-.203-1.389-.063-2.139.155-.828.352-1.338.72-1.875.139-.201.314-.52.39-.71l.138-.345-.686-.778c-2.344-2.655-3.75-6.085-4.248-10.367-.07-.596-.11-4.735-.134-13.991l-.035-13.144h6.892l-.33.242c-.587.431-.997 1.013-1.115 1.585l-.07.332-1.583.023-1.584.023.002 11.618c.002 12.368.018 12.942.418 14.954.505 2.538 1.41 4.633 2.83 6.555.15.202.219.231.447.188.724-.136 2.59.42 5.302 1.582l.998.427 1.132-.498c1.115-.49 1.133-.502 1.181-.804.12-.735-.253-2.949-.597-3.546-.109-.19-.117-.092-.08.931.037 1.025.195 1.957.434 2.561.108.274-.083.144-.45-.304-.786-.964-1.589-2.287-2.267-3.736-.209-.448-.414-.793-.456-.767-.126.078-.194-.276-.377-1.987-.243-2.271-.329-4.011-.277-5.63.12-3.711.648-6.88 1.613-9.674.117-.337.193-.613.17-.613-.084 0-.546 1.115-.88 2.121-.903 2.72-1.295 5.381-1.292 8.758.003 2.403.2 4.409.63 6.38.099.457.14.824.097.867-.068.068-.848.246-1.078.246-.068 0-.097-.257-.095-.825.004-.954-.133-1.55-.674-2.94-.358-.919-.65-1.55-2.115-4.574-1.837-3.79-2.04-4.587-2.026-7.96.008-1.897.1-3.007.498-6.01.315-2.375.364-2.81.51-4.547.074-.87.194-1.804.267-2.074.073-.27.167-.636.21-.812.16-.673.738-1.245 1.598-1.586.339-.134.755-.201 1.524-.248.582-.035 1.162-.107 1.288-.158.42-.171 1.28.196 2.273.972.26.202.498.367.53.367.033 0 .035-.206.005-.457-.059-.503.112-2.142.232-2.216.04-.026.075-.009.075.037 0 .188.476.628.921.851.954.479 2.054.63 2.845.392.316-.095.532-.253.966-.708 1.327-1.39 3.526-1.868 6.867-1.495 2.408.269 3.608.832 5.208 2.445 1.076 1.085 1.803 2.167 2.52 3.751.336.742.736 1.916.738 2.166.003.42-.658 1.226-1.26 1.537-.68.352-2.9.324-4.073-.052-1.088-.348-1.486-.627-3.014-2.109-1.707-1.657-2.273-2.046-3.05-2.095-.368-.024-.606.008-.82.11-.307.145-.946.71-.88.776.021.02.22-.06.442-.178.281-.15.536-.215.836-.215.68 0 1.038.285 2.653 2.117.555.628 1.152 1.268 1.326 1.42 1.1.964 2.72 1.462 4.37 1.345 1.502-.107 2.3-.395 2.871-1.038.203-.228.328-.335.277-.238-.11.212-.48.608-.793.849l-.227.174.133.526c.107.428.158.516.269.467a7.19 7.19 0 0 1 .61-.19c1.016-.279 1.505.25 1.58 1.708.114 2.209-.877 6.722-2.634 11.995-1.148 3.441-1.7 4.717-2.505 5.792-.49.653-3.339 4.12-3.758 4.574l-.24.26.13-.255c.692-1.347 1.285-3.374 1.66-5.677.245-1.507.437-3.939.407-5.16l-.024-1.016-.2 1.736c-.454 3.968-.957 6.678-1.625 8.763-.333 1.041-.747 1.947-1.415 3.098-.618 1.064-.718 1.476-.682 2.826l.027 1.014.95.401.95.401.955-.426c1.983-.886 3.581-1.454 4.54-1.615.648-.108.648-.108 1.358-.787 2.568-2.458 3.986-5.42 4.603-9.611.176-1.2.18-1.503.21-13.22l.03-11.992-2.422-.062-2.422-.063-.218-.35c-.511-.817-.797-1.215-1.1-1.526l-.322-.33 1.228.055c.675.03 2.608.055 4.296.055h3.07v12.933c0 12.341-.008 13-.168 14.373-.471 4.05-1.623 7-3.802 9.736-.528.663-1.662 1.823-2.405 2.46l-.49.419.129.428c.07.235.312.73.536 1.1.714 1.179.824 1.58.822 3.002-.002 1.146-.017 1.263-.234 1.773-.258.607-.808 1.49-1.099 1.764l-.19.178.026-1.195c.04-1.87-.242-2.93-1.277-4.793a33.041 33.041 0 0 0-.526-.929c-.024-.025-.89.487-.89.527 0 .011.09.285.2.609.11.323.27.947.355 1.385.148.767.148.841.003 1.984-.178 1.411-.362 1.953-.818 2.409-.28.28-.92.606-1.188.606-.036 0 .178-.505.474-1.122.55-1.148.805-1.928.805-2.465 0-.195-.144-.583-.404-1.089-.519-1.01-2.013-3.284-2.154-3.28-.06.002-.412.183-.783.404-.614.365-.68.43-.745.738-.04.185-.06 1.29-.046 2.453l.026 2.117.25.488c.139.268.491.811.783 1.206.292.396.5.719.462.719-.154 0-1.45-.418-1.706-.55l-.273-.141.064.536c.129 1.08.063 3.27-.126 4.177-.323 1.55-.868 2.904-1.542 3.83l-.38.521-.573-.634-.574-.634-.256.406c-.893 1.42-1.887 1.928-3.102 1.59zm3.337-2.725c.042-.334.01-.591-.13-1.059-.183-.605-.663-1.59-.775-1.59-.062 0 .223 1.387.316 1.538.124.2.289 1.316.242 1.636l-.048.339.17-.212c.093-.116.195-.41.225-.652zm2.833-8.005c-.271-.459-.59-1.317-.725-1.953-.146-.683-.16-1.907-.03-2.514.114-.532.186-.444-1.418-1.75l-1.215-.989v-.852c0-1.23-.173-4.865-.248-5.213-.099-.457-.198 1.52-.209 4.146l-.009 2.242 1.299 1.06 1.299 1.06-.053.636c-.113 1.371.224 2.668 1.027 3.96.342.55.597.702.282.167zm-9.413-4.995c.706-1.33.944-1.94 1.003-2.564.044-.473.022-.597-.175-1-.124-.254-.273-.5-.33-.548-.075-.063-.37.116-1.076.653-.82.624-.98.785-1.032 1.03-.224 1.076-.409 2.14-.409 2.352 0 .223.072.292.657.631.36.21.7.385.756.39.055.005.328-.42.606-.944zM75.735 71.33c.185-.75.313-2.153.184-2.025-.02.02-.08.36-.133.755a17.355 17.355 0 0 1-.26 1.397c-.09.373-.162.754-.16.847.003.315.14-.046.37-.974zm-.43-2.878c.377-1.342.515-2.149.462-2.705-.063-.648-.198-.69-.165-.05.027.525-.093 1.289-.408 2.585-.183.759-.286 1.329-.229 1.27.023-.023.176-.518.34-1.1zm-2.326-.657c.65-1.3 1.445-4.217 1.963-7.204.092-.529.19-1.053.218-1.165.059-.234-.084-.27-.35-.09-.092.063-.418.25-.724.417l-.556.303-.311-.628c-.171-.346-.354-.628-.408-.628-.053 0-.486.36-.961.8l-.866.802-1.007-.849-1.007-.848-.026.34c-.075.99 1.651 5.017 2.744 6.4.532.675.96 1.812.963 2.562.001.151.02.275.043.275.022 0 .15-.219.285-.487zm-21.622-2.032c-.154-2.169.022-4.592.419-5.76.22-.645.748-1.542.908-1.542.055 0 .074-.026.043-.057-.096-.096-.566.412-.792.855-.596 1.167-.837 2.775-.76 5.062.052 1.526.124 2.353.205 2.353.023 0 .012-.41-.023-.91zm26.349-1.975c.178-.69.229-1.089.233-1.832.005-.881-.009-.964-.189-1.143l-.193-.193.142.287c.18.362.124 1.512-.132 2.749-.292 1.41-.211 1.486.139.132zm-12.417-1.387c-.114-.138-.422-1.256-.424-1.543-.001-.102-.045-.213-.099-.246-.224-.139.11 1.466.363 1.736.186.2.318.243.16.053zm-2.049-2.2c.196-.852.238-1.528.1-1.613-.052-.032-.085.08-.085.282 0 .285-.154 1.283-.3 1.94-.023.105-.01.19.03.19s.155-.359.255-.798zm-1.704-2.008c.335-.346.623-.863.614-1.105-.002-.06-.096.068-.208.283-.112.216-.482.647-.822.959-.554.51-.583.55-.278.398.186-.093.498-.334.694-.535zm-1.075-1.468c.416-.21 1.066-.782.984-.864-.024-.024-.208.09-.408.253-.2.164-.593.415-.873.558-.355.183-.45.262-.314.263.106.001.38-.093.61-.21zm8.149-1.028c.174-.029.317-.077.317-.107s-.164-.241-.364-.47l-.365-.414-.26.193c-.657.485-1.42-.386-.86-.981.211-.226.17-.302-.357-.668-.334-.231-.347-.233-.634-.096-.333.159-.361.31-.176.926.35 1.164 1.451 1.823 2.699 1.617zm-17.087-.508c.484-.767.998-1.388 1.367-1.653.388-.279.45-.415.106-.234-.523.275-1.142.977-1.584 1.793-.315.584-.24.648.11.094zm8.531-.464c.247-.052.588-.165.759-.252.321-.162.704-.572.616-.66-.028-.028-.42-.075-.87-.104-.558-.036-.95-.11-1.232-.235-.295-.13-.384-.146-.31-.056.17.206.994.47 1.468.472.61.002.736.097.425.32-.216.153-.942.434-1.423.55-.368.089.128.058.567-.035zm15.447-1.656c-.138-.264-.514-.634-1.025-1.009-.442-.324-.252-.054.361.514.247.228.514.524.592.657.179.302.242.162.072-.162zm-3.137-.012c-.174-.336-.465-.53-1.235-.823-.35-.134-.73-.3-.847-.37-.209-.126-.21-.125-.063.045.081.095.348.262.592.37.245.109.608.272.808.363.2.09.466.292.59.448.268.337.338.321.155-.033zm-19.03-1.886c.295-.084.763-.18 1.04-.21.276-.032.526-.096.555-.143.071-.115-1.032-.006-1.562.154-.22.066-.514.201-.653.3-.14.099-.178.151-.085.117.093-.035.41-.133.706-.218zm19.234-.242c0-.045-.116-.214-.257-.375-.236-.269-.826-.609-1.627-.937-1.017-.418-.967-.402-.783-.255.093.075.631.359 1.195.632.658.319 1.099.588 1.228.752.225.285.244.299.244.183zm-11.357-.719c.502-.134.9-.373 1.409-.847.186-.174.51-.47.72-.658.335-.3.348-.325.112-.205-.147.075-.509.35-.804.609-.295.26-.689.563-.875.673-.446.264-1.628.5-2.19.437-.288-.033-.378-.024-.265.026.265.12 1.393.098 1.893-.035zm7.351-.649c-.426-.248-2.079-.713-1.9-.535.084.085 1.709.622 1.884.623.16.001.16-.004.016-.088zm3.117-1.309c-.258-.195-1.485-.544-1.91-.542-.206 0-.433.038-.503.083-.09.058.006.083.339.085.26.001.82.11 1.27.245.947.286 1.029.299.804.13zm-15.258.803-.357-.458.343-.07c.19-.038.361-.052.383-.03.021.021.027.259.013.527l-.025.489zm3.42-.726c-.272-.074-.462-.162-.424-.196.039-.035.49-.146 1.001-.248a45.486 45.486 0 0 0 1.736-.384c.442-.11.815-.19.828-.177.013.012-.12.165-.297.34-.694.69-1.8.95-2.844.665z" style="fill:#000;fill-opacity:1" transform="translate(-43.857 -46.615)"/>
  </g>
</svg>
