<?xml version="1.0" encoding="UTF-8" standalone="no"?>
<!-- Created with Inkscape (http://www.inkscape.org/) -->

<svg
   width="40.045349mm"
   height="60.417484mm"
   viewBox="0 0 40.045349 60.417484"
   version="1.1"
   id="svg1"
   xml:space="preserve"
   sodipodi:docname="atticus.svg"
   inkscape:version="1.3.2 (091e20ef0f, 2023-11-25, custom)"
   xmlns:inkscape="http://www.inkscape.org/namespaces/inkscape"
   xmlns:sodipodi="http://sodipodi.sourceforge.net/DTD/sodipodi-0.dtd"
   xmlns="http://www.w3.org/2000/svg"
   xmlns:svg="http://www.w3.org/2000/svg"><sodipodi:namedview
     id="namedview1"
     pagecolor="#ffffff"
     bordercolor="#111111"
     borderopacity="1"
     inkscape:showpageshadow="0"
     inkscape:pageopacity="0"
     inkscape:pagecheckerboard="1"
     inkscape:deskcolor="#d1d1d1"
     inkscape:document-units="mm"
     showgrid="false"
     inkscape:zoom="3.5866066"
     inkscape:cx="75.698293"
     inkscape:cy="114.17477"
     inkscape:window-width="1916"
     inkscape:window-height="1021"
     inkscape:window-x="0"
     inkscape:window-y="0"
     inkscape:window-maximized="1"
     inkscape:current-layer="layer1" /><defs
     id="defs1" /><g
     inkscape:label="Layer 1"
     inkscape:groupmode="layer"
     id="layer1"
     transform="translate(-113.05376,-167.95167)"><g
       id="g1"
       transform="translate(69.196528,121.33676)"
       style="fill:#000000"
       inkscape:export-filename="atticus.svg"
       inkscape:export-xdpi="300"
       inkscape:export-ydpi="300"><path
         style="fill:#000000;fill-opacity:1"
         d="m 69.963003,94.190225 c 0,-0.162983 0.01742,-0.229658 0.03872,-0.148166 0.0213,0.08149 0.0213,0.214841 0,0.296333 -0.0213,0.08149 -0.03872,0.01482 -0.03872,-0.148167 z m 0.0034,-1.608666 c 0,-0.20955 0.01651,-0.295275 0.03669,-0.1905 0.02018,0.104775 0.02018,0.276225 0,0.381 -0.02018,0.104775 -0.03669,0.01905 -0.03669,-0.1905 z m -18.799417,-1.27 c 0,-0.162984 0.01742,-0.229659 0.03872,-0.148167 0.0213,0.08149 0.0213,0.214842 0,0.296333 -0.0213,0.08149 -0.03872,0.01482 -0.03872,-0.148166 z M 47.598044,90.24617 c 0.0041,-0.09863 0.02412,-0.118694 0.05115,-0.05115 0.02446,0.06112 0.02145,0.134144 -0.0067,0.162278 -0.02813,0.02813 -0.04814,-0.02187 -0.04447,-0.111125 z m 17.718233,-1.728611 c 0,-0.395817 0.01458,-0.557742 0.03241,-0.359834 0.01783,0.197909 0.01783,0.521759 0,0.719667 -0.01783,0.197908 -0.03241,0.03598 -0.03241,-0.359833 z m 0.413392,0.169333 c 0,-0.162983 0.01742,-0.229658 0.03872,-0.148167 0.0213,0.08149 0.0213,0.214842 0,0.296334 -0.0213,0.08149 -0.03872,0.01482 -0.03872,-0.148167 z m -9.664958,-0.134055 c 0.0041,-0.09863 0.02412,-0.118695 0.05115,-0.05115 0.02446,0.06112 0.02145,0.134144 -0.0067,0.162278 -0.02813,0.02813 -0.04814,-0.02187 -0.04447,-0.111125 z m 22.429982,-1.083245 c 0,-0.01758 0.06668,-0.08426 0.148167,-0.148166 0.134286,-0.105315 0.137281,-0.10232 0.03197,0.03197 -0.110606,0.141033 -0.180133,0.185884 -0.180133,0.1162 z m 0.338667,-0.338666 c 0,-0.01758 0.06668,-0.08426 0.148167,-0.148167 0.134286,-0.105314 0.13728,-0.10232 0.03197,0.03197 -0.110606,0.141034 -0.180133,0.185884 -0.180133,0.116201 z M 65.632044,85.92817 c 0.0041,-0.09863 0.02413,-0.118694 0.05115,-0.05115 0.02446,0.06112 0.02145,0.134144 -0.0067,0.162278 -0.02813,0.02813 -0.04815,-0.02187 -0.04447,-0.111125 z m 18.034,-9.567333 c 0.0041,-0.09863 0.02412,-0.118694 0.05115,-0.05115 0.02446,0.06112 0.02145,0.134144 -0.0067,0.162278 -0.02813,0.02813 -0.04815,-0.02187 -0.04447,-0.111125 z M 43.885669,74.886226 c 0,-0.162984 0.01742,-0.229659 0.03872,-0.148167 0.0213,0.08149 0.0213,0.214842 0,0.296333 -0.0213,0.08149 -0.03872,0.01482 -0.03872,-0.148166 z m 37.670393,-0.508 c 0,-0.116417 0.01922,-0.164042 0.0427,-0.105834 0.02349,0.05821 0.02349,0.153459 0,0.211667 -0.02349,0.05821 -0.0427,0.01058 -0.0427,-0.105833 z m 2.289137,-0.211667 c 0.0017,-0.1397 0.0207,-0.1866 0.04217,-0.104222 0.02147,0.08238 0.02005,0.196678 -0.0031,0.254 -0.02319,0.05732 -0.04076,-0.01008 -0.03903,-0.149778 z M 54.202044,73.566837 c 0.0041,-0.09863 0.02412,-0.118694 0.05115,-0.05115 0.02446,0.06112 0.02145,0.134144 -0.0067,0.162278 -0.02813,0.02813 -0.04814,-0.02187 -0.04447,-0.111125 z m -5.588,-7.196667 c 0.0041,-0.09863 0.02412,-0.118694 0.05115,-0.05115 0.02446,0.06112 0.02145,0.134143 -0.0067,0.162277 -0.02813,0.02813 -0.04814,-0.02187 -0.04447,-0.111125 z m 0,-3.809999 c 0.0041,-0.09863 0.02412,-0.118695 0.05115,-0.05115 0.02446,0.06112 0.02145,0.134144 -0.0067,0.162278 -0.02813,0.02813 -0.04814,-0.02187 -0.04447,-0.111125 z M 61.43436,58.206893 c 0.08428,-0.09313 0.172294,-0.169333 0.195578,-0.169333 0.02328,0 -0.02663,0.0762 -0.110912,0.169333 -0.08428,0.09313 -0.172294,0.169333 -0.195577,0.169333 -0.02328,0 0.02663,-0.0762 0.110911,-0.169333 z m 16.367125,-0.05784 c 0.06112,-0.02446 0.134144,-0.02145 0.162278,0.0067 0.02813,0.02813 -0.02187,0.04814 -0.111125,0.04447 -0.09863,-0.0041 -0.118694,-0.02412 -0.05115,-0.05115 z m -10.578258,-4.66233 c -0.105315,-0.134286 -0.10232,-0.13728 0.03197,-0.03197 0.141033,0.110606 0.185884,0.180133 0.1162,0.180133 -0.01758,0 -0.08426,-0.06667 -0.148166,-0.148167 z M 49.630044,53.162171 c 0.0041,-0.09863 0.02413,-0.118694 0.05115,-0.05115 0.02446,0.06112 0.02145,0.134144 -0.0067,0.162278 -0.02813,0.02813 -0.04814,-0.02187 -0.04447,-0.111125 z M 60.48186,49.00453 c 0.08149,-0.0213 0.214841,-0.0213 0.296333,0 0.08149,0.0213 0.01482,0.03872 -0.148167,0.03872 -0.162983,0 -0.229658,-0.01742 -0.148166,-0.03872 z M 48.969748,48.831222 c 0.222596,-0.0175 0.565496,-0.01729 0.762,4.69e-4 0.196503,0.01776 0.01438,0.03207 -0.404722,0.03182 -0.4191,-2.58e-4 -0.579875,-0.01479 -0.357278,-0.03229 z m 30.057633,-5.27e-4 c 0.316262,-0.01633 0.811562,-0.01621 1.100667,2.69e-4 0.289105,0.01648 0.03034,0.02985 -0.575021,0.0297 -0.605367,-1.48e-4 -0.841908,-0.01363 -0.525646,-0.02997 z m -9.253355,-1.037802 c -0.07631,-0.04931 -0.08675,-0.08259 -0.02616,-0.08337 0.05546,-7.13e-4 0.124384,0.0368 0.153163,0.08337 0.06497,0.105116 0.03566,0.105116 -0.127,0 z M 68.996151,46.63439 c 0.06112,-0.02446 0.134144,-0.02145 0.162278,0.0067 0.02813,0.02813 -0.02187,0.04814 -0.111125,0.04447 -0.09863,-0.0041 -0.118694,-0.02412 -0.05115,-0.05115 z"
         id="path7" /><path
         style="fill:#000000;fill-opacity:1"
         d="m 57.317227,103.01673 c -0.105315,-0.13429 -0.10232,-0.13729 0.03197,-0.032 0.141033,0.1106 0.185884,0.18013 0.1162,0.18013 -0.01758,0 -0.08426,-0.0667 -0.148166,-0.14816 z m -8.110516,-9.299227 c 0.0041,-0.09863 0.02412,-0.118694 0.05115,-0.05115 0.02446,0.06112 0.02145,0.134144 -0.0067,0.162278 -0.02813,0.02813 -0.04814,-0.02187 -0.04447,-0.111125 z m 0.0067,-0.881944 c 0,-0.116417 0.01922,-0.164042 0.0427,-0.105834 0.02349,0.05821 0.02349,0.153459 0,0.211667 -0.02349,0.05821 -0.0427,0.01058 -0.0427,-0.105833 z m 6.948941,-0.762 c 0,-0.162984 0.01742,-0.229659 0.03872,-0.148167 0.0213,0.08149 0.0213,0.214842 0,0.296333 -0.0213,0.08149 -0.03872,0.01482 -0.03872,-0.148166 z m -4.064,-0.254 c 0,-0.162984 0.01742,-0.229659 0.03872,-0.148167 0.0213,0.08149 0.0213,0.214842 0,0.296333 -0.0213,0.08149 -0.03872,0.01482 -0.03872,-0.148166 z m 4.067417,-1.100667 c 0,-0.20955 0.01651,-0.295275 0.03669,-0.1905 0.02018,0.104775 0.02018,0.276225 0,0.381 -0.02018,0.104775 -0.03669,0.01905 -0.03669,-0.1905 z m 9.146312,-3.302 c 0,-0.256117 0.01587,-0.360892 0.03527,-0.232833 0.0194,0.128058 0.0194,0.337608 0,0.465666 -0.0194,0.128059 -0.03527,0.02328 -0.03527,-0.232833 z M 54.117377,76.953504 c 0.0041,-0.09863 0.02413,-0.118695 0.05115,-0.05115 0.02446,0.06112 0.02145,0.134143 -0.0067,0.162278 -0.02813,0.02813 -0.04814,-0.02187 -0.04447,-0.111125 z M 71.728044,75.51417 c 0.0041,-0.09863 0.02412,-0.118694 0.05115,-0.05115 0.02446,0.06112 0.02145,0.134144 -0.0067,0.162278 -0.02813,0.02813 -0.04815,-0.02187 -0.04447,-0.111125 z M 53.954728,75.055559 c 0,-0.116417 0.01922,-0.164042 0.0427,-0.105833 0.02349,0.05821 0.02349,0.153458 0,0.211666 -0.02349,0.05821 -0.0427,0.01058 -0.0427,-0.105833 z m 27.604471,-0.296333 c 0.0017,-0.1397 0.0207,-0.1866 0.04217,-0.104222 0.02147,0.08238 0.02005,0.196678 -0.0031,0.254 -0.02319,0.05732 -0.04076,-0.01008 -0.03903,-0.149778 z M 54.286711,71.45017 c 0.0041,-0.09863 0.02413,-0.118694 0.05115,-0.05115 0.02446,0.06112 0.02145,0.134143 -0.0067,0.162277 -0.02813,0.02813 -0.04814,-0.02187 -0.04447,-0.111125 z m 21.505333,-0.677333 c 0.0041,-0.09863 0.02412,-0.118694 0.05115,-0.05115 0.02446,0.06112 0.02145,0.134144 -0.0067,0.162278 -0.02813,0.02813 -0.04814,-0.02187 -0.04447,-0.111125 z m 0.08467,-0.931333 c 0.0041,-0.09863 0.02412,-0.118694 0.05115,-0.05115 0.02446,0.06112 0.02145,0.134144 -0.0067,0.162278 -0.02813,0.02813 -0.04814,-0.02187 -0.04447,-0.111125 z M 54.117377,69.41817 c 0.0041,-0.09863 0.02413,-0.118694 0.05115,-0.05115 0.02446,0.06112 0.02145,0.134143 -0.0067,0.162277 -0.02813,0.02813 -0.04814,-0.02187 -0.04447,-0.111125 z m -2.878666,-4.572 c 0.0041,-0.09863 0.02412,-0.118694 0.05115,-0.05115 0.02446,0.06112 0.02145,0.134143 -0.0067,0.162277 -0.02813,0.02813 -0.04814,-0.02187 -0.04447,-0.111125 z m -2.699512,-0.246944 c 0.0017,-0.1397 0.0207,-0.1866 0.04217,-0.104222 0.02147,0.08238 0.02005,0.196678 -0.0031,0.254 -0.02319,0.05732 -0.04076,-0.01008 -0.03903,-0.149778 z m 2.71247,-1.651 c 0,-0.162983 0.01742,-0.229658 0.03872,-0.148167 0.0213,0.08149 0.0213,0.214842 0,0.296334 -0.0213,0.08149 -0.03872,0.01482 -0.03872,-0.148167 z m 26.572375,-0.896055 c 0.0041,-0.09863 0.02412,-0.118695 0.05115,-0.05115 0.02446,0.06112 0.02145,0.134144 -0.0067,0.162278 -0.02813,0.02813 -0.04814,-0.02187 -0.04447,-0.111125 z m 1.201709,-1.728612 c 0,-0.209549 0.01651,-0.295274 0.03669,-0.190499 0.02018,0.104774 0.02018,0.276224 0,0.380999 -0.02018,0.104775 -0.03669,0.01905 -0.03669,-0.1905 z M 51.740026,59.73589 c 0,-0.04382 0.03766,-0.102948 0.0837,-0.131398 0.04799,-0.02966 0.06219,0.0043 0.03327,0.07967 -0.05628,0.146678 -0.116972,0.173515 -0.116972,0.05173 z m 21.653501,-2.008404 c 0.05821,-0.02349 0.153458,-0.02349 0.211666,0 0.05821,0.02349 0.01058,0.0427 -0.105833,0.0427 -0.116417,0 -0.164042,-0.01922 -0.105833,-0.0427 z m 0.682625,-0.0018 c 0.06112,-0.02446 0.134143,-0.02145 0.162277,0.0067 0.02813,0.02813 -0.02187,0.04814 -0.111125,0.04447 -0.09863,-0.0041 -0.118694,-0.02412 -0.05115,-0.05115 z m -0.423334,-0.846667 c 0.06112,-0.02446 0.134144,-0.02145 0.162278,0.0067 0.02813,0.02813 -0.02187,0.04814 -0.111125,0.04447 -0.09863,-0.0041 -0.118694,-0.02412 -0.05115,-0.05115 z m 1.688042,0.0018 c 0.05821,-0.02349 0.153458,-0.02349 0.211667,0 0.05821,0.02349 0.01058,0.0427 -0.105834,0.0427 -0.116416,0 -0.164041,-0.01922 -0.105833,-0.0427 z m -6.000967,-1.023427 c -0.105314,-0.134286 -0.102319,-0.137281 0.03197,-0.03197 0.08149,0.06391 0.148166,0.130585 0.148166,0.148166 0,0.06968 -0.06953,0.02483 -0.180133,-0.1162 z M 60.29136,53.804226 c -0.109448,-0.07073 -0.107213,-0.08225 0.01617,-0.08337 0.07874,-7.13e-4 0.166717,0.0368 0.195496,0.08337 0.06623,0.107154 -0.04586,0.107154 -0.211666,0 z m 2.201333,-4.519299 c 0,-0.01758 0.06667,-0.08426 0.148167,-0.148167 0.134286,-0.105314 0.137281,-0.10232 0.03197,0.03197 -0.110606,0.141034 -0.180133,0.185884 -0.180133,0.116201 z m -5.665982,-0.356089 c 0.0041,-0.09863 0.02412,-0.118695 0.05115,-0.05115 0.02446,0.06112 0.02145,0.134144 -0.0067,0.162278 -0.02813,0.02813 -0.04814,-0.02187 -0.04447,-0.111125 z M 75.554138,48.75022 c 0.08238,-0.02147 0.196678,-0.02005 0.254,0.0031 0.05732,0.02319 -0.01008,0.04076 -0.149778,0.03903 -0.1397,-0.0017 -0.1866,-0.0207 -0.104222,-0.04217 z M 62.374414,48.061004 c -0.02398,-0.0388 0.01019,-0.07055 0.07595,-0.07055 0.06575,0 0.09993,0.03175 0.07594,0.07055 -0.02398,0.03881 -0.05816,0.07056 -0.07594,0.07056 -0.01779,0 -0.05196,-0.03175 -0.07595,-0.07056 z m 7.129737,-0.325948 c 0.06112,-0.02446 0.134144,-0.02145 0.162278,0.0067 0.02813,0.02813 -0.02187,0.04814 -0.111125,0.04447 -0.09863,-0.0041 -0.118694,-0.02412 -0.05115,-0.05115 z"
         id="path6" /><path
         style="fill:#000000;fill-opacity:1"
         d="m 68.256711,93.29417 c 0.0041,-0.09863 0.02412,-0.118694 0.05115,-0.05115 0.02446,0.06112 0.02145,0.134144 -0.0067,0.162278 -0.02813,0.02813 -0.04815,-0.02187 -0.04447,-0.111125 z m -12.10065,-0.797278 c 0,-0.116417 0.01922,-0.164042 0.0427,-0.105833 0.02349,0.05821 0.02349,0.153458 0,0.211666 -0.02349,0.05821 -0.0427,0.01058 -0.0427,-0.105833 z m 0.01085,-2.497667 c 6.36e-4,-0.232833 0.01708,-0.318034 0.03654,-0.189335 0.01946,0.128698 0.01894,0.319198 -0.0012,0.423333 -0.0201,0.104135 -0.03602,-0.0012 -0.03538,-0.233998 z m 9.142844,-3.344333 c 0,-0.20955 0.01651,-0.295275 0.03669,-0.1905 0.02018,0.104775 0.02018,0.276225 0,0.381 -0.02018,0.104775 -0.03669,0.01905 -0.03669,-0.1905 z m -16.79786,0.105833 c -0.105314,-0.134286 -0.102319,-0.13728 0.03197,-0.03197 0.08149,0.06391 0.148166,0.130585 0.148166,0.148167 0,0.06968 -0.06953,0.02483 -0.180133,-0.116201 z m 17.138838,-1.545166 c 0,-0.256117 0.01587,-0.360892 0.03527,-0.232833 0.0194,0.128058 0.0194,0.337608 0,0.465666 -0.0194,0.128059 -0.03527,0.02328 -0.03527,-0.232833 z m 11.700962,0.169333 c 0.08429,-0.09313 0.172295,-0.169333 0.195578,-0.169333 0.02328,0 -0.02663,0.0762 -0.110911,0.169333 -0.08428,0.09313 -0.172295,0.169334 -0.195578,0.169334 -0.02328,0 0.02663,-0.0762 0.110911,-0.169334 z m -23.89869,-5.588 c 0,-0.162983 0.01742,-0.229658 0.03872,-0.148166 0.0213,0.08149 0.0213,0.214841 0,0.296333 -0.0213,0.08149 -0.03872,0.01482 -0.03872,-0.148167 z m -7.369138,-5.630333 c 0.0017,-0.1397 0.0207,-0.1866 0.04217,-0.104222 0.02147,0.08238 0.02005,0.196678 -0.0031,0.254 -0.02319,0.05732 -0.04076,-0.01008 -0.03903,-0.149778 z m 25.898179,-1.531055 c 0.0041,-0.09863 0.02412,-0.118695 0.05115,-0.05115 0.02446,0.06112 0.02145,0.134144 -0.0067,0.162278 -0.02813,0.02813 -0.04814,-0.02187 -0.04447,-0.111125 z m -17.526,-3.217334 c 0.0041,-0.09863 0.02412,-0.118694 0.05115,-0.05115 0.02446,0.06112 0.02145,0.134143 -0.0067,0.162277 -0.02813,0.02813 -0.04814,-0.02187 -0.04447,-0.111125 z M 51.14736,64.815889 c 0,-0.04382 0.03766,-0.102947 0.0837,-0.131397 0.04799,-0.02966 0.06219,0.0043 0.03328,0.07967 -0.05629,0.146678 -0.116972,0.173515 -0.116972,0.05173 z M 77.478693,64.18089 c 0,-0.0671 0.03455,-0.143355 0.07677,-0.169451 0.04222,-0.02609 0.05683,0.02881 0.03246,0.122004 -0.0517,0.197695 -0.10923,0.222685 -0.10923,0.04745 z m 0.402167,-2.192089 c -0.03493,-0.0853 -0.06234,-0.2758 -0.06093,-0.423333 0.0022,-0.225291 0.01656,-0.244226 0.08989,-0.11825 0.04803,0.0825 0.07544,0.272995 0.06093,0.423333 -0.02074,0.214746 -0.04001,0.240095 -0.08989,0.11825 z M 48.698711,61.628837 c 0.0041,-0.09863 0.02412,-0.118694 0.05115,-0.05115 0.02446,0.06112 0.02145,0.134144 -0.0067,0.162278 -0.02813,0.02813 -0.04814,-0.02187 -0.04447,-0.111125 z m 2.660315,-0.373944 c -0.02878,-0.04657 -0.01198,-0.08467 0.03734,-0.08467 0.04931,0 0.08966,0.0381 0.08966,0.08467 0,0.04657 -0.0168,0.08467 -0.03734,0.08467 -0.02054,0 -0.06088,-0.0381 -0.08966,-0.08467 z m 0.72236,-2.163984 c 0.0015,-0.04383 0.05863,-0.15364 0.127,-0.244032 0.06837,-0.09039 0.123095,-0.128492 0.121614,-0.08467 -0.0015,0.04382 -0.05863,0.153639 -0.127,0.244031 -0.06837,0.09039 -0.123095,0.128492 -0.121614,0.08467 z m 11.229752,-0.0091 c -0.03104,-0.03104 -0.05644,-0.09581 -0.05644,-0.143934 0,-0.05305 0.03943,-0.04805 0.100189,0.0127 0.0551,0.0551 0.0805,0.119874 0.05644,0.143934 -0.02406,0.02406 -0.06914,0.01834 -0.100189,-0.0127 z m -1.636889,-1.167498 c 0,-0.0678 0.03237,-0.103269 0.07194,-0.07882 0.03957,0.02445 0.05002,0.07993 0.02323,0.123275 -0.06846,0.110777 -0.09516,0.0983 -0.09516,-0.04446 z m 7.801856,-3.284558 -0.845079,-0.867833 0.867834,0.845078 c 0.806047,0.784912 0.906323,0.890589 0.845078,0.890589 -0.01251,0 -0.40304,-0.390525 -0.867833,-0.867834 z m -1.310745,0.1905 c -0.07631,-0.04931 -0.08675,-0.08259 -0.02616,-0.08337 0.05546,-7.13e-4 0.124384,0.0368 0.153164,0.08337 0.06497,0.105116 0.03565,0.105116 -0.127,0 z M 67.053893,53.57142 c -0.105314,-0.134286 -0.102319,-0.137281 0.03197,-0.03197 0.141033,0.110606 0.185884,0.180133 0.1162,0.180133 -0.01758,0 -0.08426,-0.06668 -0.148167,-0.148167 z"
         id="path5" /><path
         style="fill:#000000;fill-opacity:1"
         d="m 68.256711,92.616836 c 0.0041,-0.09863 0.02412,-0.118694 0.05115,-0.05115 0.02446,0.06112 0.02145,0.134143 -0.0067,0.162277 -0.02813,0.02813 -0.04815,-0.02187 -0.04447,-0.111125 z m 1.703154,-0.670277 c 0.0017,-0.1397 0.0207,-0.1866 0.04217,-0.104222 0.02147,0.08238 0.02005,0.196678 -0.0031,0.254 -0.02319,0.05732 -0.04076,-0.01008 -0.03903,-0.149778 z m -4.226778,-4.021667 c 0,-0.20955 0.01651,-0.295275 0.03669,-0.1905 0.02018,0.104775 0.02018,0.276225 0,0.381 -0.02018,0.104775 -0.03669,0.01905 -0.03669,-0.1905 z M 51.961268,86.3854 c 0.02445,-0.03957 0.07993,-0.05002 0.123275,-0.02323 0.110777,0.06846 0.0983,0.09516 -0.04446,0.09516 -0.0678,0 -0.103269,-0.03237 -0.07882,-0.07194 z m 24.416759,-0.01647 c 0,-0.01758 0.06668,-0.08426 0.148166,-0.148167 0.134286,-0.105314 0.137281,-0.10232 0.03197,0.03197 -0.110606,0.141033 -0.180133,0.185883 -0.180133,0.1162 z M 43.957377,75.683504 c 0.0041,-0.09863 0.02412,-0.118695 0.05115,-0.05115 0.02446,0.06112 0.02145,0.134144 -0.0067,0.162278 -0.02813,0.02813 -0.04814,-0.02187 -0.04447,-0.111125 z m -0.08467,-1.27 c 0.0041,-0.09863 0.02412,-0.118695 0.05115,-0.05115 0.02446,0.06112 0.02145,0.134144 -0.0067,0.162278 -0.02813,0.02813 -0.04814,-0.02187 -0.04447,-0.111125 z M 83.869925,61.424226 c 0,-6.91515 0.01002,-9.744075 0.02226,-6.2865 0.01224,3.457575 0.01224,9.115425 0,12.573 -0.01224,3.457575 -0.02226,0.62865 -0.02226,-6.2865 z m -32.590122,4.596818 c -0.04595,-0.120667 -0.03622,-0.130392 0.0474,-0.0474 0.05786,0.05743 0.08388,0.125751 0.05781,0.151818 -0.02607,0.02607 -0.07341,-0.02092 -0.105205,-0.104422 z M 71.298027,60.12226 c 0,-0.01758 0.06667,-0.08426 0.148166,-0.148167 0.134286,-0.105314 0.137281,-0.10232 0.03197,0.03197 -0.110606,0.141033 -0.180133,0.185883 -0.180133,0.1162 z m 1.016,-0.931333 c 0,-0.01758 0.06668,-0.08426 0.148166,-0.148167 0.134286,-0.105315 0.137281,-0.10232 0.03197,0.03197 -0.110606,0.141034 -0.180133,0.185884 -0.180133,0.116201 z m -3.927426,-4.301526 c 0.02445,-0.03956 0.07993,-0.05002 0.123276,-0.02323 0.110776,0.06846 0.0983,0.09516 -0.04446,0.09516 -0.0678,0 -0.103269,-0.03237 -0.07882,-0.07194 z m -7.862408,-1.141248 c 0.05821,-0.02349 0.153458,-0.02349 0.211667,0 0.05821,0.02349 0.01058,0.0427 -0.105834,0.0427 -0.116416,0 -0.164041,-0.01922 -0.105833,-0.0427 z M 49.630044,53.500837 c 0.0041,-0.09863 0.02413,-0.118694 0.05115,-0.05115 0.02446,0.06112 0.02145,0.134143 -0.0067,0.162277 -0.02813,0.02813 -0.04814,-0.02187 -0.04447,-0.111125 z m 22.397224,-0.728103 c 0.02445,-0.03957 0.07993,-0.05002 0.123275,-0.02322 0.110777,0.06846 0.0983,0.09516 -0.04446,0.09516 -0.0678,0 -0.103269,-0.03237 -0.07882,-0.07194 z m 4.966203,-1.736514 c 0.08238,-0.02147 0.196678,-0.02005 0.254,0.0031 0.05732,0.02319 -0.01008,0.04076 -0.149778,0.03903 -0.1397,-0.0017 -0.1866,-0.0207 -0.104222,-0.04217 z m -4.721178,-0.36369 c -0.02966,-0.048 0.0043,-0.06219 0.07967,-0.03328 0.146678,0.05629 0.173515,0.116971 0.05173,0.116971 -0.04382,0 -0.102947,-0.03766 -0.131397,-0.0837 z M 49.962026,49.538927 c 0,-0.01758 0.06667,-0.08426 0.148167,-0.148167 0.134286,-0.105314 0.137281,-0.10232 0.03197,0.03197 -0.110606,0.141034 -0.180133,0.185884 -0.180133,0.116201 z m 16.832792,-0.533871 c 0.06112,-0.02446 0.134144,-0.02145 0.162278,0.0067 0.02813,0.02813 -0.02187,0.04814 -0.111125,0.04447 -0.09863,-0.0041 -0.118694,-0.02413 -0.05115,-0.05115 z M 50.427693,48.89356 50.089026,48.83292 50.44886,48.82091 c 0.197908,-0.0066 0.359833,0.02608 0.359833,0.07265 0,0.04657 -0.0095,0.07926 -0.02117,0.07265 -0.01164,-0.0066 -0.173566,-0.0393 -0.359833,-0.07265 z m 23.738201,-0.0635 c -0.105315,-0.134286 -0.10232,-0.137281 0.03197,-0.03197 0.141033,0.110606 0.185884,0.180133 0.1162,0.180133 -0.01758,0 -0.08426,-0.06667 -0.148166,-0.148166 z m 3.587966,0.0029 c 0.128058,-0.0194 0.337608,-0.0194 0.465667,0 0.128058,0.0194 0.02328,0.03527 -0.232834,0.03527 -0.256116,0 -0.360891,-0.01587 -0.232833,-0.03527 z"
         id="path4" /><path
         style="fill:#000000;fill-opacity:1"
         d="m 62.421395,106.21289 c 0,-0.11642 0.01922,-0.16404 0.04271,-0.10583 0.02349,0.0582 0.02349,0.15346 0,0.21166 -0.02349,0.0582 -0.04271,0.0106 -0.04271,-0.10583 z m 3.90265,-2.24366 c 9.39e-4,-0.18627 0.01828,-0.2525 0.03853,-0.14718 0.02025,0.10531 0.01948,0.25771 -0.0017,0.33866 -0.02119,0.081 -0.03776,-0.005 -0.03682,-0.19148 z m 3.287332,-3.56306 c 0.0041,-0.0986 0.02412,-0.11869 0.05115,-0.0512 0.02446,0.0611 0.02145,0.13414 -0.0067,0.16227 -0.02813,0.0281 -0.04814,-0.0219 -0.04447,-0.11112 z m 0,-1.862667 c 0.0041,-0.09863 0.02412,-0.118694 0.05115,-0.05115 0.02446,0.06112 0.02145,0.134144 -0.0067,0.162278 -0.02813,0.02813 -0.04814,-0.02187 -0.04447,-0.111125 z m 7.281334,-1.778 c 0.0041,-0.09863 0.02412,-0.118694 0.05115,-0.05115 0.02446,0.06112 0.02145,0.134144 -0.0067,0.162278 -0.02813,0.02813 -0.04815,-0.02187 -0.04447,-0.111125 z m 0,-2.201333 c 0.0041,-0.09863 0.02412,-0.118694 0.05115,-0.05115 0.02446,0.06112 0.02145,0.134144 -0.0067,0.162278 -0.02813,0.02813 -0.04815,-0.02187 -0.04447,-0.111125 z m -9.042958,-1.982611 c 0,-0.20955 0.01651,-0.295275 0.03669,-0.1905 0.02018,0.104775 0.02018,0.276225 0,0.381 -0.02018,0.104775 -0.03669,0.01905 -0.03669,-0.1905 z m 2.110112,-1.058334 c 0.0017,-0.1397 0.0207,-0.1866 0.04217,-0.104222 0.02147,0.08238 0.02005,0.196678 -0.0031,0.254 -0.02319,0.05732 -0.04076,-0.01008 -0.03903,-0.149778 z m -4.228487,-4.233333 c 9.4e-4,-0.186267 0.01828,-0.252497 0.03853,-0.147179 0.02025,0.105318 0.01948,0.257718 -0.0017,0.338666 -0.02119,0.08095 -0.03776,-0.0052 -0.03682,-0.191487 z m -0.425042,-1.227666 c 0,-0.162984 0.01742,-0.229659 0.03872,-0.148167 0.0213,0.08149 0.0213,0.214842 0,0.296333 -0.0213,0.08149 -0.03872,0.01482 -0.03872,-0.148166 z m -7.481109,-1.0795 c -0.105315,-0.134287 -0.10232,-0.137281 0.03197,-0.03197 0.141033,0.110606 0.185884,0.180133 0.1162,0.180133 -0.01758,0 -0.08426,-0.06668 -0.148166,-0.148166 z m 0.535305,-0.232834 c 0.0017,-0.1397 0.0207,-0.1866 0.04217,-0.104222 0.02147,0.08238 0.02005,0.196678 -0.0031,0.254 -0.02319,0.05732 -0.04076,-0.01008 -0.03903,-0.149778 z m 7.278196,-0.127 c 0,-0.116416 0.01922,-0.164041 0.0427,-0.105833 0.02349,0.05821 0.02349,0.153458 0,0.211667 -0.02349,0.05821 -0.0427,0.01058 -0.0427,-0.105834 z M 54.286711,75.344837 c 0.0041,-0.09863 0.02413,-0.118694 0.05115,-0.05115 0.02446,0.06112 0.02145,0.134144 -0.0067,0.162278 -0.02813,0.02813 -0.04814,-0.02187 -0.04447,-0.111125 z M 81.668468,62.397893 c 3e-6,-6.193367 0.01008,-8.714524 0.02238,-5.602572 0.01231,3.111952 0.01231,8.179252 -5e-6,11.260666 -0.01231,3.081415 -0.02238,0.535272 -0.02238,-5.658094 z m -27.375073,9.355666 c 0,-0.116416 0.01922,-0.164041 0.0427,-0.105833 0.02349,0.05821 0.02349,0.153458 0,0.211667 -0.02349,0.05821 -0.0427,0.01058 -0.0427,-0.105834 z m 20.645298,-2.36567 c 0,-0.04382 0.03766,-0.102947 0.0837,-0.131397 0.04799,-0.02966 0.06219,0.0043 0.03328,0.07967 -0.05629,0.146678 -0.116972,0.173515 -0.116972,0.05173 z m 0.696976,-3.645663 c 0,-0.162983 0.01742,-0.229658 0.03872,-0.148167 0.0213,0.08149 0.0213,0.214842 0,0.296334 -0.0213,0.08149 -0.03872,0.01482 -0.03872,-0.148167 z M 51.238711,64.507504 c 0.0041,-0.09863 0.02412,-0.118694 0.05115,-0.05115 0.02446,0.06112 0.02145,0.134144 -0.0067,0.162278 -0.02813,0.02813 -0.04814,-0.02187 -0.04447,-0.111125 z m 0.01467,-0.924278 c 9.4e-4,-0.186267 0.01828,-0.252497 0.03853,-0.147179 0.02025,0.105317 0.01948,0.257717 -0.0017,0.338666 -0.02119,0.08095 -0.03776,-0.0052 -0.03682,-0.191487 z m 26.655333,-1.192389 c 0.0041,-0.09863 0.02412,-0.118694 0.05115,-0.05115 0.02446,0.06112 0.02145,0.134144 -0.0067,0.162278 -0.02813,0.02813 -0.04815,-0.02187 -0.04447,-0.111125 z m -3.917226,-5.511781 c 0.06112,-0.02446 0.134144,-0.02145 0.162278,0.0067 0.02813,0.02813 -0.02187,0.04814 -0.111125,0.04447 -0.09863,-0.0041 -0.118695,-0.02412 -0.05115,-0.05115 z M 61.166249,56.136284 c 0,-0.0678 0.03237,-0.103269 0.07194,-0.07882 0.03956,0.02445 0.05002,0.07993 0.02323,0.123275 -0.06846,0.110777 -0.09516,0.0983 -0.09516,-0.04446 z m 6.894265,-0.444606 c 0.105318,-0.02025 0.257718,-0.01948 0.338666,0.0017 0.08095,0.02119 -0.0052,0.03776 -0.191487,0.03682 -0.186267,-9.4e-4 -0.252497,-0.01828 -0.147179,-0.03853 z m -1.243137,-1.344174 c 0.0041,-0.09863 0.02413,-0.118694 0.05115,-0.05115 0.02446,0.06112 0.02145,0.134144 -0.0067,0.162278 -0.02813,0.02813 -0.04815,-0.02187 -0.04447,-0.111125 z m -5.949226,-0.601115 c 0.06112,-0.02446 0.134144,-0.02145 0.162278,0.0067 0.02813,0.02813 -0.02187,0.04814 -0.111125,0.04447 -0.09863,-0.0041 -0.118694,-0.02412 -0.05115,-0.05115 z m 7.540409,-0.174996 c -0.105314,-0.134286 -0.10232,-0.137281 0.03197,-0.03197 0.141034,0.110606 0.185884,0.180133 0.116201,0.180133 -0.01758,0 -0.08426,-0.06668 -0.148167,-0.148167 z M 53.094693,53.296226 c 0,-0.04657 0.04035,-0.08467 0.08966,-0.08467 0.04931,0 0.06612,0.0381 0.03734,0.08467 -0.02878,0.04657 -0.06913,0.08467 -0.08966,0.08467 -0.02054,0 -0.03734,-0.0381 -0.03734,-0.08467 z m 19.016388,-0.324555 c -0.02398,-0.03881 0.01019,-0.07056 0.07595,-0.07056 0.06575,0 0.09993,0.03175 0.07595,0.07056 -0.02398,0.0388 -0.05816,0.07055 -0.07595,0.07055 -0.01779,0 -0.05196,-0.03175 -0.07595,-0.07055 z m 2.280895,-0.770261 c -0.02679,-0.04335 -0.01634,-0.09882 0.02322,-0.123276 0.03957,-0.02445 0.07194,0.01102 0.07194,0.07882 0,0.142762 -0.0267,0.155235 -0.09516,0.04446 z m 3.109048,-1.167272 c 0.128699,-0.01946 0.319199,-0.01894 0.423333,0.0012 0.104135,0.0201 -0.0012,0.03602 -0.233997,0.03538 -0.232833,-6.35e-4 -0.318035,-0.01708 -0.189336,-0.03654 z m -14.63754,-2.003369 c 0.01068,-0.07277 0.04306,-0.155952 0.07196,-0.18485 0.0289,-0.0289 0.0438,0.007 0.03312,0.07976 -0.01068,0.07277 -0.04306,0.155952 -0.07196,0.18485 -0.0289,0.0289 -0.0438,-0.007 -0.03312,-0.07977 z m -0.328458,-1.237876 c 0.08429,-0.09313 0.172295,-0.169333 0.195578,-0.169333 0.02328,0 -0.02663,0.0762 -0.110911,0.169333 -0.08428,0.09313 -0.172294,0.169333 -0.195578,0.169333 -0.02328,0 0.02663,-0.0762 0.110911,-0.169333 z m 6.815667,-0.005 c 0,-0.04931 0.0381,-0.06612 0.08467,-0.03734 0.04657,0.02878 0.08467,0.06913 0.08467,0.08966 0,0.02053 -0.0381,0.03734 -0.08467,0.03734 -0.04657,0 -0.08467,-0.04035 -0.08467,-0.08966 z"
         id="path3" /><path
         style="fill:#000000;fill-opacity:1"
         d="m 69.621199,100.07456 c 0.0017,-0.139702 0.0207,-0.186601 0.04217,-0.104223 0.02147,0.08237 0.02005,0.196673 -0.0031,0.254003 -0.02319,0.0573 -0.04076,-0.0101 -0.03903,-0.14978 z m 0,-1.185335 c 0.0017,-0.1397 0.0207,-0.1866 0.04217,-0.104222 0.02147,0.08238 0.02005,0.196678 -0.0031,0.254 -0.02319,0.05732 -0.04076,-0.01008 -0.03903,-0.149778 z m -7.082557,-3.084483 c -0.02679,-0.04335 -0.01634,-0.09882 0.02323,-0.123275 0.03957,-0.02445 0.07194,0.01101 0.07194,0.07882 0,0.142762 -0.0267,0.155236 -0.09516,0.04446 z m 7.411402,-0.817239 c 0.0041,-0.09863 0.02412,-0.118694 0.05115,-0.05115 0.02446,0.06112 0.02145,0.134144 -0.0067,0.162278 -0.02813,0.02813 -0.04814,-0.02187 -0.04447,-0.111125 z m 8.568865,-1.686278 c 6.36e-4,-0.232833 0.01708,-0.318034 0.03654,-0.189336 0.01946,0.128699 0.01894,0.319199 -0.0012,0.423334 -0.0201,0.104135 -0.03602,-0.0012 -0.03538,-0.233998 z M 68.256711,92.955503 c 0.0041,-0.09863 0.02412,-0.118694 0.05115,-0.05115 0.02446,0.06112 0.02145,0.134144 -0.0067,0.162278 -0.02813,0.02813 -0.04815,-0.02187 -0.04447,-0.111125 z m 1.700017,-1.813278 c 0,-0.116416 0.01922,-0.164041 0.0427,-0.105833 0.02349,0.05821 0.02349,0.153458 0,0.211667 -0.02349,0.05821 -0.0427,0.01058 -0.0427,-0.105834 z M 56.149377,89.399503 c 0.0041,-0.09863 0.02412,-0.118694 0.05115,-0.05115 0.02446,0.06112 0.02145,0.134144 -0.0067,0.162278 -0.02813,0.02813 -0.04814,-0.02187 -0.04447,-0.111125 z m 9.580292,-2.659944 c 0,-0.162984 0.01742,-0.229659 0.03872,-0.148167 0.0213,0.08149 0.0213,0.214842 0,0.296333 -0.0213,0.08149 -0.03872,0.01482 -0.03872,-0.148166 z m 13.442358,-0.03197 c 0,-0.01758 0.06668,-0.08426 0.148166,-0.148166 0.134286,-0.105315 0.137281,-0.10232 0.03197,0.03197 -0.110606,0.141033 -0.180133,0.185884 -0.180133,0.1162 z m -13.787299,-2.8467 c 0,-0.116416 0.01922,-0.164041 0.0427,-0.105833 0.02349,0.05821 0.02349,0.153458 0,0.211667 -0.02349,0.05821 -0.0427,0.01058 -0.0427,-0.105834 z m 6.421299,-3.587966 c 0,-0.01758 0.06668,-0.08426 0.148166,-0.148167 0.134286,-0.105314 0.137281,-0.102319 0.03197,0.03197 -0.110606,0.141033 -0.180133,0.185884 -0.180133,0.1162 z M 46.074044,74.49817 c 0.0041,-0.09863 0.02412,-0.118694 0.05115,-0.05115 0.02446,0.06112 0.02145,0.134144 -0.0067,0.162278 -0.02813,0.02813 -0.04814,-0.02187 -0.04447,-0.111125 z m -2.191512,-0.500944 c 0.0017,-0.1397 0.0207,-0.1866 0.04217,-0.104222 0.02147,0.08238 0.02005,0.196678 -0.0031,0.254 -0.02319,0.05732 -0.04076,-0.01008 -0.03903,-0.149778 z m 37.764471,-0.127 c 0,-0.162984 0.01742,-0.229659 0.03872,-0.148167 0.0213,0.08149 0.0213,0.214842 0,0.296333 -0.0213,0.08149 -0.03872,0.01482 -0.03872,-0.148166 z m -27.759788,-0.762 c 0,-0.442383 0.01427,-0.623358 0.03171,-0.402167 0.01744,0.221192 0.01744,0.583142 0,0.804333 -0.01744,0.221192 -0.03171,0.04022 -0.03171,-0.402166 z M 75.400878,72.17126 c -0.03069,-0.04967 -0.03765,-0.108458 -0.01546,-0.130652 0.02219,-0.02219 0.06291,0.01844 0.09049,0.0903 0.05725,0.149191 0.0085,0.175434 -0.07503,0.04035 z m 1.999833,-7.748423 c 0.0041,-0.09863 0.02412,-0.118694 0.05115,-0.05115 0.02446,0.06112 0.02145,0.134144 -0.0067,0.162278 -0.02813,0.02813 -0.04814,-0.02187 -0.04447,-0.111125 z m -28.786667,-1.27 c 0.0041,-0.09863 0.02412,-0.118694 0.05115,-0.05115 0.02446,0.06112 0.02145,0.134144 -0.0067,0.162278 -0.02813,0.02813 -0.04814,-0.02187 -0.04447,-0.111125 z m 16.079982,-2.326274 c 0,-0.142449 0.03299,-0.238608 0.07331,-0.213688 0.0682,0.04215 0.031,0.472684 -0.04085,0.472684 -0.01785,0 -0.03246,-0.116548 -0.03246,-0.258996 z M 63.30247,58.655044 c -0.04595,-0.120666 -0.03622,-0.130392 0.0474,-0.0474 0.05786,0.05743 0.08388,0.125751 0.05781,0.151819 -0.02607,0.02607 -0.07341,-0.02092 -0.105205,-0.104423 z m -3.834999,-3.893491 c 0.08238,-0.02147 0.196678,-0.02005 0.254,0.0031 0.05732,0.02319 -0.01008,0.04076 -0.149778,0.03903 -0.1397,-0.0017 -0.1866,-0.0207 -0.104222,-0.04217 z m -9.837427,-1.006716 c 0.0041,-0.09863 0.02413,-0.118694 0.05115,-0.05115 0.02446,0.06112 0.02145,0.134143 -0.0067,0.162277 -0.02813,0.02813 -0.04814,-0.02187 -0.04447,-0.111125 z m 11.492107,-0.0084 c 0.06112,-0.02446 0.134144,-0.02145 0.162278,0.0067 0.02813,0.02813 -0.02187,0.04814 -0.111125,0.04447 -0.09863,-0.0041 -0.118694,-0.02412 -0.05115,-0.05115 z m 5.847076,-0.428996 c -0.105315,-0.134286 -0.10232,-0.137281 0.03197,-0.03197 0.08149,0.06391 0.148167,0.130585 0.148167,0.148166 0,0.06968 -0.06953,0.02483 -0.180133,-0.1162 z m 5.387133,-0.02117 c -0.02878,-0.04657 -0.01198,-0.08467 0.03734,-0.08467 0.04931,0 0.08966,0.0381 0.08966,0.08467 0,0.04657 -0.0168,0.08467 -0.03734,0.08467 -0.02053,0 -0.06088,-0.0381 -0.08966,-0.08467 z m -6.492875,-0.48117 c 0.06112,-0.02446 0.134144,-0.02145 0.162278,0.0067 0.02813,0.02813 -0.02187,0.04814 -0.111125,0.04447 -0.09863,-0.0041 -0.118695,-0.02412 -0.05115,-0.05115 z M 78.391098,51.03279 c 0.199139,-0.01788 0.503939,-0.01763 0.677333,5.59e-4 0.173394,0.01819 0.01046,0.03283 -0.362071,0.03252 -0.372533,-3.07e-4 -0.514401,-0.01519 -0.315262,-0.03308 z M 54.641471,50.78222 c 0.08238,-0.02147 0.196678,-0.02005 0.254,0.0031 0.05732,0.02319 -0.01008,0.04076 -0.149778,0.03903 -0.1397,-0.0017 -0.1866,-0.0207 -0.104222,-0.04217 z M 50.63936,50.046927 c 0,-0.01758 0.06667,-0.08426 0.148166,-0.148167 0.134286,-0.105314 0.137281,-0.10232 0.03197,0.03197 -0.110606,0.141034 -0.180133,0.185884 -0.180133,0.116201 z m 11.514666,-0.508 c 0,-0.01758 0.06667,-0.08426 0.148167,-0.148167 0.134286,-0.105314 0.137281,-0.10232 0.03197,0.03197 -0.110606,0.141034 -0.180133,0.185884 -0.180133,0.116201 z M 77.03518,48.833678 c 0.105318,-0.02025 0.257718,-0.01948 0.338667,0.0017 0.08095,0.02119 -0.0052,0.03776 -0.191487,0.03682 -0.186267,-9.39e-4 -0.252498,-0.01828 -0.14718,-0.03853 z m -5.398487,-0.537782 c 0,-0.04931 0.0381,-0.06612 0.08467,-0.03734 0.04657,0.02878 0.08467,0.06913 0.08467,0.08966 0,0.02054 -0.0381,0.03734 -0.08467,0.03734 -0.04657,0 -0.08467,-0.04035 -0.08467,-0.08966 z"
         id="path2" /><path
         style="fill:#000000;fill-opacity:1"
         d="m 63.012853,106.93108 c -0.609452,-0.17021 -0.606749,-0.16743 -0.556725,-0.57371 0.05105,-0.41458 -0.07576,-0.6934 -0.219732,-0.48315 -0.04783,0.0699 -0.109901,0.23257 -0.137936,0.3616 -0.02803,0.12903 -0.08005,0.25257 -0.115596,0.27454 -0.07359,0.0455 -0.891638,-0.30663 -1.129008,-0.48596 -0.150346,-0.11358 -0.144401,-0.13872 0.136936,-0.57896 0.358995,-0.56175 0.8498,-1.84976 1.078309,-2.82977 0.09328,-0.40004 0.169592,-0.76621 0.169592,-0.81372 0,-0.36633 -0.545096,0.82619 -1.140192,2.49444 -0.213689,0.59904 -0.43588,1.17954 -0.493758,1.29 -0.104207,0.19889 -0.108106,0.19941 -0.399808,0.0538 l -0.294575,-0.147 -0.04233,-1.7309 -0.04233,-1.7309 -0.284302,0.3339 c -0.219199,0.25744 -0.249338,0.27573 -0.131614,0.0799 1.221306,-2.03167 1.946683,-3.374379 2.483337,-4.596772 0.363442,-0.827851 0.809338,-2.122029 0.751166,-2.180201 -0.01883,-0.01883 -0.308563,0.507684 -0.64385,1.170032 -0.335287,0.662348 -0.78453,1.52812 -0.998317,1.923936 -0.840473,1.556095 -1.139817,2.128485 -1.848626,3.534835 -0.404855,0.80327 -0.76594,1.4605 -0.80241,1.4605 -0.268752,0 -1.08075,-0.82459 -1.731639,-1.75848 -0.396056,-0.56826 -1.577412,-2.649069 -1.577412,-2.77841 0,-0.05381 0.414563,-0.762066 0.921251,-1.573895 0.506688,-0.811828 1.042875,-1.683539 1.191526,-1.937134 0.148652,-0.253595 0.350463,-0.590501 0.44847,-0.74868 l 0.178194,-0.287597 -0.196548,-0.159155 c -0.177146,-0.143444 -0.214153,-0.146669 -0.374887,-0.03267 -0.435956,0.309206 -0.937091,0.554461 -1.550066,0.7586 -1.011257,0.336779 -1.029174,0.318904 -0.455659,-0.454595 0.275134,-0.371073 0.607766,-0.894948 0.739181,-1.164167 0.22618,-0.463353 0.240588,-0.561818 0.269852,-1.844155 0.017,-0.745066 0.0045,-1.852424 -0.0277,-2.460795 l -0.05861,-1.106129 -0.751125,-0.439038 c -0.413119,-0.241471 -0.781069,-0.437784 -0.817667,-0.436251 -0.0366,0.0015 -0.218711,0.239657 -0.404693,0.529166 -1.490875,2.320765 -2.07485,3.428054 -2.07485,3.934171 0,0.539616 0.30811,1.415884 0.896351,2.549235 0.492393,0.948681 0.524841,1.041778 0.347596,0.997293 -0.74989,-0.188211 -1.310375,-0.625248 -1.56705,-1.221905 -0.09633,-0.223933 -0.257218,-0.881436 -0.357521,-1.461116 -0.28278,-1.634273 -0.171234,-2.456831 0.634658,-4.680063 l 0.392436,-1.082621 -0.186399,-0.3016 -0.186399,-0.3016 -0.157317,0.200627 c -0.820478,1.046352 -2.063725,3.380384 -2.406895,4.518626 -0.210865,0.699405 -0.230396,0.886195 -0.237765,2.273884 l -0.008,1.511883 -0.360789,-0.409984 c -0.400799,-0.45545 -0.970528,-1.561525 -1.106475,-2.148116 -0.186221,-0.803521 -0.203455,-1.388785 -0.06297,-2.138502 0.155214,-0.828324 0.351339,-1.338756 0.720627,-1.875499 0.138185,-0.200845 0.313348,-0.520383 0.389252,-0.710085 l 0.138007,-0.344914 -0.686217,-0.77754 c -2.343625,-2.655518 -3.74911,-6.08554 -4.24803,-10.367126 -0.06948,-0.596227 -0.108993,-4.734748 -0.133594,-13.991167 L 43.857236,48.89356 h 3.446099 3.446098 l -0.330203,0.242525 c -0.587333,0.431378 -0.996858,1.013356 -1.11559,1.585368 l -0.06873,0.331107 -1.583776,0.02304 -1.583776,0.02303 0.0017,11.618632 c 0.0018,12.367494 0.01791,12.941818 0.418205,14.95396 0.504922,2.538072 1.409559,4.63304 2.83061,6.555156 0.148986,0.201519 0.218146,0.230638 0.446181,0.187858 0.724061,-0.135834 2.589651,0.420567 5.302102,1.58132 l 0.997835,0.427009 1.131981,-0.497669 c 1.114818,-0.490124 1.132731,-0.502305 1.181453,-0.80342 0.119025,-0.735602 -0.253876,-2.949284 -0.597432,-3.546583 -0.10901,-0.189522 -0.117408,-0.09208 -0.08027,0.931334 0.03718,1.024568 0.195321,1.95689 0.434419,2.561166 0.108188,0.273427 -0.08351,0.143591 -0.449253,-0.30427 -0.787253,-0.964018 -1.589863,-2.286682 -2.267399,-3.736571 -0.209073,-0.447403 -0.414448,-0.792251 -0.45639,-0.76633 -0.126596,0.07824 -0.193771,-0.275823 -0.377043,-1.987329 -0.243191,-2.271058 -0.328724,-4.011009 -0.276776,-5.630333 0.119033,-3.710529 0.647585,-6.880072 1.613094,-9.673166 0.116704,-0.337609 0.193019,-0.613834 0.169589,-0.613834 -0.08353,0 -0.546281,1.115282 -0.880272,2.121567 -0.902544,2.719282 -1.295025,5.381349 -1.291248,8.7581 0.0027,2.403033 0.200391,4.40844 0.62897,6.379971 0.09929,0.456763 0.140585,0.823548 0.09756,0.866575 -0.06826,0.06825 -0.847946,0.246454 -1.078329,0.246454 -0.06719,0 -0.09654,-0.256969 -0.09428,-0.8255 0.0038,-0.953891 -0.13291,-1.550117 -0.673963,-2.939408 -0.357993,-0.919239 -0.649623,-1.549907 -2.115438,-4.574759 -1.836723,-3.790256 -2.039333,-4.586209 -2.025888,-7.958666 0.0076,-1.898351 0.09945,-3.008072 0.497736,-6.011333 0.31497,-2.375041 0.363746,-2.809219 0.510726,-4.546149 0.07367,-0.870549 0.193663,-1.803999 0.26666,-2.074334 0.073,-0.270334 0.167185,-0.635651 0.209308,-0.811814 0.160906,-0.67293 0.738252,-1.245748 1.598477,-1.58594 0.338535,-0.13388 0.754603,-0.201692 1.524,-0.248384 0.582084,-0.03533 1.161818,-0.106478 1.288298,-0.158117 0.418981,-0.171061 1.279083,0.19667 2.272972,0.971793 0.259014,0.202003 0.497472,0.367278 0.529906,0.367278 0.03243,0 0.03481,-0.205552 0.0053,-0.456783 -0.05909,-0.50276 0.111961,-2.142493 0.231183,-2.216176 0.04126,-0.0255 0.07502,-0.0089 0.07502,0.0368 0,0.188175 0.476288,0.628352 0.921468,0.851604 0.95417,0.478504 2.054232,0.630139 2.844979,0.392159 0.315848,-0.09506 0.531619,-0.253216 0.965956,-0.708042 1.32719,-1.389797 3.526268,-1.868758 6.866813,-1.495598 2.407824,0.26897 3.608232,0.832582 5.208061,2.445277 1.07634,1.084996 1.803529,2.167121 2.520565,3.750838 0.335757,0.741587 0.735293,1.915563 0.737077,2.165794 0.003,0.419483 -0.658055,1.225904 -1.260128,1.537248 -0.680304,0.351799 -2.898871,0.323511 -4.072791,-0.05193 -1.087577,-0.347827 -1.486154,-0.62677 -3.013508,-2.108994 -1.707553,-1.657099 -2.273614,-2.046071 -3.049485,-2.095475 -0.36833,-0.02345 -0.606635,0.0085 -0.820421,0.109924 -0.306933,0.145649 -0.94605,0.710112 -0.879445,0.776717 0.02016,0.02016 0.218627,-0.0601 0.441035,-0.178353 0.281202,-0.149517 0.535933,-0.214914 0.836268,-0.214693 0.680597,4.98e-4 1.03749,0.285167 2.653291,2.11635 0.55471,0.62865 1.151376,1.268102 1.325926,1.421005 1.099272,0.962944 2.719529,1.461346 4.369869,1.344201 1.502217,-0.10663 2.299457,-0.39483 2.871021,-1.037867 0.202884,-0.228253 0.327418,-0.335355 0.276743,-0.238005 -0.110477,0.212236 -0.480541,0.60825 -0.793125,0.848743 L 76.39,57.502155 l 0.13258,0.526317 c 0.107773,0.427839 0.158135,0.515148 0.269164,0.466627 0.07512,-0.03283 0.350142,-0.118375 0.611155,-0.190103 1.014942,-0.278912 1.504235,0.250083 1.57946,1.707617 0.114024,2.209302 -0.877352,6.722515 -2.63482,11.994947 -1.147281,3.441861 -1.699037,4.71786 -2.504757,5.792543 -0.48913,0.65241 -3.33875,4.120602 -3.758189,4.573986 l -0.239736,0.259138 0.130414,-0.254 c 0.691847,-1.347462 1.284278,-3.374665 1.659184,-5.677451 0.245242,-1.506358 0.437493,-3.938543 0.407859,-5.159882 l -0.02465,-1.016 -0.198963,1.735666 c -0.454875,3.968116 -0.957652,6.678768 -1.62538,8.763 -0.333795,1.041904 -0.747494,1.94731 -1.415621,3.098178 -0.618034,1.064581 -0.717408,1.476661 -0.681601,2.826424 l 0.0269,1.013935 0.950381,0.400996 0.950381,0.400997 0.954619,-0.426526 c 1.982192,-0.885648 3.580583,-1.453996 4.54023,-1.614392 0.647645,-0.108247 0.647808,-0.108342 1.357207,-0.787269 2.568038,-2.45773 3.986453,-5.419575 4.602832,-9.611343 0.176392,-1.19957 0.181208,-1.502107 0.210465,-13.219409 l 0.02994,-11.991743 -2.422123,-0.06264 -2.422124,-0.06264 -0.218081,-0.349287 c -0.51083,-0.818163 -0.797153,-1.215638 -1.099866,-1.526839 l -0.321861,-0.330886 1.227666,0.05541 c 0.675217,0.03048 2.608792,0.05555 4.296834,0.05572 l 3.069166,3.1e-4 -1.26e-4,12.932833 c -1.2e-4,12.340729 -0.0078,12.99873 -0.167523,14.372166 -0.471024,4.050029 -1.623116,7.000506 -3.801939,9.736667 -0.528166,0.663269 -1.662095,1.822685 -2.404828,2.45888 l -0.490084,0.419786 0.128546,0.427715 c 0.0707,0.235244 0.312,0.730544 0.536223,1.100667 0.713968,1.178545 0.823663,1.579196 0.821725,3.001285 -0.0016,1.146831 -0.01694,1.263587 -0.233554,1.773202 -0.258123,0.607278 -0.808462,1.490511 -1.099122,1.763969 l -0.189651,0.178428 0.02581,-1.195406 c 0.04038,-1.870299 -0.241652,-2.929085 -1.276705,-4.792961 -0.275566,-0.496228 -0.512272,-0.913958 -0.526013,-0.92829 -0.02443,-0.02549 -0.89009,0.486551 -0.89009,0.52649 0,0.01113 0.09007,0.285071 0.200165,0.608751 0.11009,0.32368 0.269461,0.947093 0.354157,1.385362 0.148226,0.767012 0.148364,0.841309 0.0037,1.984045 -0.178634,1.410894 -0.362787,1.952605 -0.818806,2.408623 -0.280082,0.280082 -0.918771,0.605787 -1.187916,0.605787 -0.03514,0 0.178238,-0.504825 0.474167,-1.121834 0.550236,-1.147234 0.805218,-1.927764 0.805218,-2.464873 0,-0.194865 -0.143756,-0.582382 -0.403778,-1.088446 -0.518845,-1.009796 -2.012779,-3.284439 -2.15454,-3.280474 -0.05978,0.0017 -0.411932,0.183394 -0.78257,0.403825 -0.614139,0.365249 -0.680239,0.430665 -0.745513,0.737793 -0.03939,0.185355 -0.05999,1.289509 -0.04578,2.453675 l 0.02585,2.116667 0.251132,0.48804 c 0.138123,0.268422 0.490197,0.811347 0.782388,1.2065 0.292191,0.395153 0.500221,0.71846 0.462288,0.71846 -0.154197,0 -1.451289,-0.417855 -1.706066,-0.549605 l -0.273633,-0.141501 0.06393,0.536053 c 0.128913,1.080936 0.06286,3.269315 -0.126073,4.176725 -0.322906,1.55088 -0.867745,2.90463 -1.541882,3.8311 l -0.378842,0.52064 -0.574209,-0.634 -0.57421,-0.634 -0.255123,0.40546 c -0.893153,1.41947 -1.887267,1.92872 -3.102539,1.58932 z m 3.337496,-2.7255 c 0.04213,-0.33385 0.01042,-0.59096 -0.130522,-1.05833 -0.182386,-0.60483 -0.66275,-1.59102 -0.774966,-1.59102 -0.06199,0 0.2236,1.38824 0.316519,1.53859 0.123246,0.19942 0.288389,1.31575 0.242079,1.63641 l -0.04891,0.33866 0.17008,-0.21166 c 0.09354,-0.11642 0.195119,-0.41011 0.225723,-0.65265 z m 2.832257,-8.004561 C 68.911939,95.742271 68.593498,94.884311 68.457793,94.24819 68.312016,93.564855 68.297294,92.340947 68.427543,91.733605 68.541601,91.201766 68.61353,91.290496 67.009661,89.98454 L 65.79469,88.995247 v -0.851959 c 0,-1.230715 -0.172775,-4.86541 -0.247835,-5.213729 -0.09837,-0.456476 -0.197844,1.520719 -0.208627,4.146627 l -0.0092,2.241627 1.298874,1.060373 1.298874,1.060373 -0.05234,0.635 c -0.113033,1.37144 0.223142,2.668822 1.026367,3.960999 0.342066,0.550294 0.597183,0.700992 0.281801,0.166461 z m -9.412821,-4.995294 c 0.706592,-1.330636 0.944568,-1.938957 1.002903,-2.563654 0.04414,-0.472728 0.02236,-0.597283 -0.175066,-1.000799 -0.124017,-0.25348 -0.272292,-0.49972 -0.329501,-0.547199 -0.07556,-0.06271 -0.369812,0.115883 -1.075671,0.652877 -0.820056,0.623871 -0.981101,0.784584 -1.032198,1.030072 -0.224022,1.076287 -0.408892,2.139818 -0.408892,2.352301 0,0.22244 0.07205,0.291735 0.656166,0.631076 0.360892,0.209658 0.701234,0.384939 0.756316,0.389512 0.05508,0.0046 0.327757,-0.420311 0.605943,-0.944186 z M 75.735134,71.330226 c 0.18493,-0.749398 0.312601,-2.153265 0.184141,-2.024804 -0.01948,0.01948 -0.07962,0.359204 -0.133641,0.754944 -0.05402,0.39574 -0.171168,1.024327 -0.260322,1.39686 -0.08916,0.372533 -0.161207,0.753533 -0.160118,0.846667 0.0037,0.315327 0.1411,-0.04633 0.36994,-0.973667 z m -0.430326,-2.878667 c 0.377436,-1.341181 0.515319,-2.148384 0.461915,-2.704173 -0.06229,-0.648302 -0.198215,-0.689734 -0.164933,-0.05028 0.02735,0.52539 -0.09289,1.288504 -0.407311,2.585116 -0.183932,0.7585 -0.286799,1.32849 -0.229198,1.27 0.02293,-0.02328 0.175716,-0.518583 0.339527,-1.100667 z m -2.326174,-0.656166 c 0.650634,-1.299691 1.445846,-4.217281 1.96371,-7.204748 0.09158,-0.528319 0.189506,-1.052194 0.217609,-1.164166 0.05887,-0.234554 -0.08417,-0.271243 -0.350588,-0.08993 -0.09185,0.06251 -0.417353,0.249928 -0.723333,0.416474 L 73.529704,60.055841 73.218892,59.4277 c -0.170947,-0.345477 -0.354299,-0.62814 -0.40745,-0.62814 -0.05315,0 -0.485994,0.360551 -0.961874,0.801226 l -0.865238,0.801226 -1.007318,-0.848529 -1.007319,-0.848528 -0.02588,0.340388 c -0.07519,0.989112 1.651448,5.016337 2.744183,6.40055 0.532306,0.674293 0.960031,1.811338 0.963442,2.561166 6.88e-4,0.151342 0.01975,0.275167 0.04237,0.275167 0.02261,0 0.150785,-0.219075 0.284826,-0.486833 z m -21.621766,-2.032 c -0.15424,-2.169141 0.02208,-4.592412 0.419069,-5.759618 0.219642,-0.645773 0.747879,-1.542882 0.908482,-1.542882 0.05491,0 0.07403,-0.0258 0.0425,-0.05733 -0.09567,-0.09567 -0.566027,0.412208 -0.791975,0.855148 -0.595518,1.167435 -0.836748,2.775433 -0.759399,5.062029 0.05164,1.526514 0.123494,2.352817 0.204604,2.352817 0.02279,0 0.01231,-0.409575 -0.02328,-0.910166 z M 77.705632,63.78833 c 0.178401,-0.690701 0.229098,-1.088861 0.233326,-1.832468 0.005,-0.881305 -0.0086,-0.963991 -0.188508,-1.143 l -0.193909,-0.192969 0.142482,0.286936 c 0.179618,0.361723 0.124392,1.511886 -0.132006,2.749217 -0.292003,1.409153 -0.211123,1.486339 0.138615,0.132284 z m -12.41615,-1.387077 c -0.114841,-0.138375 -0.422425,-1.256333 -0.424671,-1.54353 -7.98e-4,-0.102027 -0.04522,-0.212556 -0.09872,-0.24562 -0.224507,-0.138753 0.110789,1.465825 0.362834,1.736363 0.185675,0.199298 0.318355,0.24292 0.160559,0.05279 z m -2.04901,-2.199439 c 0.195872,-0.852701 0.237273,-1.528395 0.09889,-1.613921 -0.05098,-0.03151 -0.08467,0.08067 -0.08467,0.281983 0,0.284808 -0.154177,1.283005 -0.299724,1.940517 -0.02319,0.104775 -0.0097,0.1905 0.02989,0.1905 0.03963,0 0.154658,-0.359586 0.255613,-0.799079 z m -1.704287,-2.009101 c 0.335314,-0.345674 0.622689,-0.862909 0.613899,-1.104934 -0.0022,-0.0597 -0.0958,0.06781 -0.208076,0.283355 -0.112273,0.21555 -0.481974,0.647014 -0.821558,0.95881 -0.554689,0.509301 -0.583013,0.549766 -0.278757,0.398246 0.186267,-0.09276 0.498788,-0.333726 0.694492,-0.535477 z m -1.075507,-1.467479 c 0.41617,-0.210889 1.066364,-0.782215 0.983967,-0.864612 -0.02384,-0.02383 -0.207351,0.09028 -0.407812,0.253598 -0.20046,0.163314 -0.593073,0.41442 -0.872473,0.558012 -0.355018,0.182455 -0.449784,0.261616 -0.314686,0.262869 0.106323,9.85e-4 0.381275,-0.09346 0.611004,-0.209867 z m 8.149182,-1.028018 c 0.174625,-0.02886 0.3175,-0.07711 0.3175,-0.107219 0,-0.03011 -0.164111,-0.241239 -0.36469,-0.469182 l -0.36469,-0.414442 -0.260721,0.19276 c -0.656159,0.485119 -1.419555,-0.385664 -0.860139,-0.981134 0.212136,-0.225809 0.171481,-0.301962 -0.356563,-0.667896 -0.333569,-0.231164 -0.346129,-0.233073 -0.633092,-0.09623 -0.333089,0.158839 -0.361768,0.309518 -0.17624,0.925978 0.350326,1.164047 1.450837,1.823613 2.698635,1.617365 z M 51.522769,55.188744 c 0.484118,-0.766259 0.998062,-1.387501 1.367119,-1.652537 0.388396,-0.278925 0.450272,-0.415384 0.106223,-0.234262 -0.522701,0.275173 -1.142604,0.977205 -1.583639,1.793448 -0.315201,0.583357 -0.239674,0.647281 0.110297,0.09335 z m 8.53159,-0.463616 c 0.246767,-0.0523 0.587941,-0.165541 0.758164,-0.251638 0.321676,-0.1627 0.703999,-0.572957 0.616013,-0.661022 -0.02779,-0.02782 -0.418849,-0.07434 -0.869019,-0.103392 -0.558491,-0.03604 -0.950122,-0.110709 -1.232873,-0.235061 -0.294371,-0.129463 -0.38409,-0.145743 -0.309786,-0.05621 0.171039,0.206089 0.994366,0.470996 1.468178,0.472387 0.609297,0.0018 0.736251,0.09722 0.424577,0.319151 -0.215646,0.153554 -0.941364,0.434336 -1.422587,0.550402 -0.3684,0.08885 0.127586,0.05859 0.567333,-0.03461 z m 15.447034,-1.655995 c -0.138366,-0.264255 -0.514567,-0.634467 -1.025038,-1.00872 -0.442288,-0.324264 -0.252476,-0.05442 0.361103,0.513349 0.247003,0.228564 0.513231,0.52414 0.591616,0.656835 0.178707,0.302527 0.241666,0.16196 0.07232,-0.161464 z m -3.137513,-0.01236 c -0.173519,-0.335549 -0.464759,-0.529653 -1.235187,-0.823219 -0.34925,-0.133079 -0.73025,-0.299348 -0.846667,-0.369487 -0.208711,-0.125744 -0.209597,-0.125113 -0.06346,0.0452 0.08152,0.095 0.348216,0.261551 0.592667,0.370117 0.244451,0.108566 0.608154,0.271726 0.808229,0.362579 0.200074,0.09085 0.465367,0.292512 0.589539,0.448132 0.268438,0.336422 0.338305,0.32139 0.154876,-0.03332 z M 53.334575,51.171428 c 0.294918,-0.08491 0.762495,-0.179989 1.039061,-0.211279 0.276565,-0.03129 0.526678,-0.09545 0.555805,-0.14258 0.07074,-0.114451 -1.032403,-0.0053 -1.562419,0.154609 -0.219631,0.06626 -0.513629,0.201196 -0.653329,0.299857 -0.1397,0.09866 -0.1778,0.151125 -0.08467,0.116584 0.09313,-0.03454 0.41063,-0.132277 0.705549,-0.217191 z m 19.233452,-0.242922 c 0,-0.04495 -0.115643,-0.21343 -0.256983,-0.374408 -0.236032,-0.268825 -0.826392,-0.609054 -1.626851,-0.937568 -1.017201,-0.417465 -0.966747,-0.401077 -0.783167,-0.25438 0.09313,0.07442 0.631051,0.358836 1.195372,0.632033 0.658086,0.318589 1.098346,0.588159 1.227667,0.751698 0.225324,0.284941 0.243962,0.298893 0.243962,0.182625 z M 61.210541,50.210174 c 0.502453,-0.133736 0.899784,-0.372681 1.409152,-0.847429 0.186267,-0.173607 0.510117,-0.469465 0.719667,-0.657462 0.335162,-0.30069 0.348754,-0.325387 0.112969,-0.205284 -0.147416,0.07509 -0.509366,0.349122 -0.804333,0.608958 -0.294967,0.259836 -0.688703,0.562721 -0.87497,0.673078 -0.445966,0.26422 -1.627719,0.499772 -2.189828,0.436487 -0.288576,-0.03249 -0.377881,-0.02349 -0.265505,0.02676 0.265799,0.118845 1.392989,0.09794 1.892848,-0.0351 z m 7.351744,-0.648996 c -0.426306,-0.247968 -2.079267,-0.713071 -1.901127,-0.534931 0.08493,0.08493 1.709892,0.62203 1.885202,0.623115 0.159214,9.86e-4 0.160166,-0.0043 0.01592,-0.08818 z m 3.116742,-1.309008 c -0.258467,-0.195383 -1.485491,-0.544106 -1.90937,-0.542647 -0.207147,7.13e-4 -0.433781,0.03823 -0.503631,0.08337 -0.09063,0.05857 0.0064,0.0829 0.338667,0.08494 0.260805,0.0016 0.81952,0.109547 1.27,0.245358 0.947359,0.285609 1.028815,0.298671 0.804334,0.128979 z m -15.258051,0.802897 -0.356716,-0.457841 0.343171,-0.06999 c 0.188744,-0.03849 0.360822,-0.05234 0.382395,-0.03077 0.02157,0.02157 0.02767,0.259096 0.01355,0.52783 l -0.02568,0.488607 z m 3.419608,-0.725863 c -0.27121,-0.07386 -0.46171,-0.162369 -0.423333,-0.196684 0.03838,-0.03431 0.488875,-0.145517 1.001109,-0.247115 0.512233,-0.101598 1.293283,-0.274586 1.735666,-0.384418 0.442384,-0.109832 0.814876,-0.189668 0.82776,-0.177412 0.01288,0.01226 -0.120465,0.165367 -0.296333,0.340247 -0.694758,0.690856 -1.80115,0.949629 -2.844869,0.665382 z"
         id="path1" /></g></g></svg>
